<svg xmlns="http://www.w3.org/2000/svg" viewBox="0 0 1200 800" width="1200" height="800"><rect x="0" y="0" width="1200" height="800" rx="0" fill="#F4F7F9" stroke="#F4F7F9"/><text x="38" y="33.019999999999996" font-family="Arial,sans-serif" font-size="11" font-weight="700" fill="#147B75">PERTAMINA GLD   /   SCHEMATIC BLOCK DIAGRAM</text><text x="38" y="73.96" font-family="Arial,sans-serif" font-size="28" font-weight="700" fill="#183044">04  Modul sensor: jalur fungsional</text><text x="38" y="101.66" font-family="Arial,sans-serif" font-size="13" font-weight="400" fill="#5D7180">Sumber terpisah: references/sensor-module-tps22919-h1-h8.png; gambar contoh bertuliskan MQ2.</text><rect x="40" y="135" width="1120" height="520" rx="12" fill="#EAF2F2" stroke="#147B75"/><text x="60" y="161.84" font-family="Arial,sans-serif" font-size="12" font-weight="700" fill="#147B75">BATAS MODUL SENSOR REFERENSI - diagram fungsional, bukan pinout pemasangan langsung</text><rect x="65" y="205" width="260" height="100" rx="8" fill="white" stroke="#CCD7DE"/><rect x="65" y="205" width="5" height="100" rx="2" fill="#B86518" stroke="#B86518"/><text x="81" y="231.3" font-family="Arial,sans-serif" font-size="15" font-weight="700" fill="#183044">Masukan daya &amp; enable</text><text x="81" y="254.84" font-family="Arial,sans-serif" font-size="12" font-weight="400" fill="#183044">+5VIN / GND / EN</text><text x="81" y="271.64" font-family="Arial,sans-serif" font-size="12" font-weight="400" fill="#183044">Sakelar +5VIN -&gt; +5V</text><rect x="410" y="205" width="295" height="100" rx="8" fill="white" stroke="#CCD7DE"/><rect x="410" y="205" width="5" height="100" rx="2" fill="#B86518" stroke="#B86518"/><text x="426" y="231.3" font-family="Arial,sans-serif" font-size="15" font-weight="700" fill="#183044">Filter catu modul</text><text x="426" y="254.84" font-family="Arial,sans-serif" font-size="12" font-weight="400" fill="#183044">+5V -&gt; +5VA lokal</text><text x="426" y="271.64" font-family="Arial,sans-serif" font-size="12" font-weight="400" fill="#183044">Untuk rangkaian analog</text><rect x="800" y="205" width="330" height="100" rx="8" fill="white" stroke="#CCD7DE"/><rect x="800" y="205" width="5" height="100" rx="2" fill="#B86518" stroke="#B86518"/><text x="816" y="231.3" font-family="Arial,sans-serif" font-size="15" font-weight="700" fill="#183044">Distribusi lokal</text><text x="816" y="254.84" font-family="Arial,sans-serif" font-size="12" font-weight="400" fill="#183044">+5V untuk heater sensor</text><text x="816" y="271.64" font-family="Arial,sans-serif" font-size="12" font-weight="400" fill="#183044">+5VA untuk rangkaian analog</text><text x="816" y="288.44" font-family="Arial,sans-serif" font-size="12" font-weight="400" fill="#183044">Berbeda dari net +5VA motherboard</text><polyline points="325,255 410,255" fill="none" stroke="#B86518" stroke-width="1.8"/><polygon points="410,255 402.79642318117857,258.4797242728898 402.79642318117857,251.52027572711015" fill="#B86518"/><polyline points="705,255 800,255" fill="none" stroke="#B86518" stroke-width="1.8"/><polygon points="800,255 792.7964231811786,258.4797242728898 792.7964231811786,251.52027572711015" fill="#B86518"/><rect x="65" y="365" width="255" height="110" rx="8" fill="white" stroke="#CCD7DE"/><rect x="65" y="365" width="5" height="110" rx="2" fill="#147B75" stroke="#147B75"/><text x="81" y="391.3" font-family="Arial,sans-serif" font-size="15" font-weight="700" fill="#183044">I1 MQ2 (contoh)</text><text x="81" y="414.84" font-family="Arial,sans-serif" font-size="12" font-weight="400" fill="#183044">Elemen sensor + jaringan R/C</text><text x="81" y="431.64" font-family="Arial,sans-serif" font-size="12" font-weight="400" fill="#183044">Masukan referensi VMID_REF</text><text x="81" y="448.44" font-family="Arial,sans-serif" font-size="12" font-weight="400" fill="#183044">Dua input ke penguat</text><rect x="435" y="365" width="285" height="110" rx="8" fill="white" stroke="#CCD7DE"/><rect x="435" y="365" width="5" height="110" rx="2" fill="#147B75" stroke="#147B75"/><text x="451" y="391.3" font-family="Arial,sans-serif" font-size="15" font-weight="700" fill="#183044">Penguat analog</text><text x="451" y="414.84" font-family="Arial,sans-serif" font-size="12" font-weight="400" fill="#183044">Input VIN+ / VIN-</text><text x="451" y="431.64" font-family="Arial,sans-serif" font-size="12" font-weight="400" fill="#183044">REF dari buffer</text><rect x="840" y="365" width="290" height="110" rx="8" fill="white" stroke="#CCD7DE"/><rect x="840" y="365" width="5" height="110" rx="2" fill="#147B75" stroke="#147B75"/><text x="856" y="391.3" font-family="Arial,sans-serif" font-size="15" font-weight="700" fill="#183044">ANOUT modul</text><text x="856" y="414.84" font-family="Arial,sans-serif" font-size="12" font-weight="400" fill="#183044">Keluaran analog menuju</text><text x="856" y="431.64" font-family="Arial,sans-serif" font-size="12" font-weight="400" fill="#183044">AINn motherboard melalui</text><text x="856" y="448.44" font-family="Arial,sans-serif" font-size="12" font-weight="400" fill="#183044">padanan fungsi konektor</text><polyline points="320,420 435,420" fill="none" stroke="#147B75" stroke-width="1.8"/><polygon points="435,420 427.79642318117857,423.4797242728898 427.79642318117857,416.5202757271102" fill="#147B75"/><rect x="328" y="396" width="61.92919921875" height="16" rx="2" fill="#F4F7F9" stroke="#F4F7F9"/><text x="331" y="407.02" font-family="Arial,sans-serif" font-size="11" font-weight="400" fill="#147B75">VIN+ / VIN-</text><polyline points="720,420 840,420" fill="none" stroke="#147B75" stroke-width="1.8"/><polygon points="840,420 832.7964231811786,423.4797242728898 832.7964231811786,416.5202757271102" fill="#147B75"/><rect x="744" y="396" width="44.5" height="16" rx="2" fill="#F4F7F9" stroke="#F4F7F9"/><text x="747" y="407.02" font-family="Arial,sans-serif" font-size="11" font-weight="400" fill="#147B75">ANOUT</text><rect x="65" y="530" width="255" height="95" rx="8" fill="white" stroke="#CCD7DE"/><rect x="65" y="530" width="5" height="95" rx="2" fill="#316FC0" stroke="#316FC0"/><text x="81" y="556.3" font-family="Arial,sans-serif" font-size="15" font-weight="700" fill="#183044">DAC</text><text x="81" y="579.84" font-family="Arial,sans-serif" font-size="12" font-weight="400" fill="#183044">I2C cabang terpilih</text><text x="81" y="596.64" font-family="Arial,sans-serif" font-size="12" font-weight="400" fill="#183044">Atur referensi</text><rect x="435" y="530" width="285" height="95" rx="8" fill="white" stroke="#CCD7DE"/><rect x="435" y="530" width="5" height="95" rx="2" fill="#147B75" stroke="#147B75"/><text x="451" y="556.3" font-family="Arial,sans-serif" font-size="15" font-weight="700" fill="#183044">Buffer referensi</text><text x="451" y="579.84" font-family="Arial,sans-serif" font-size="12" font-weight="400" fill="#183044">Keluaran DAC -&gt; REF</text><polyline points="320,575 435,575" fill="none" stroke="#147B75" stroke-width="1.8"/><polygon points="435,575 427.79642318117857,578.4797242728898 427.79642318117857,571.5202757271102" fill="#147B75"/><rect x="332" y="551" width="62.8369140625" height="16" rx="2" fill="#F4F7F9" stroke="#F4F7F9"/><text x="335" y="562.02" font-family="Arial,sans-serif" font-size="11" font-weight="400" fill="#147B75">VOUT DAC</text><polyline points="720,575 770,575 770,495 580,495 580,475" fill="none" stroke="#147B75" stroke-width="1.8"/><polygon points="580,475 583.4797242728898,482.20357681882143 576.5202757271102,482.20357681882143" fill="#147B75"/><rect x="752" y="506" width="28.0" height="16" rx="2" fill="#F4F7F9" stroke="#F4F7F9"/><text x="755" y="517.02" font-family="Arial,sans-serif" font-size="11" font-weight="400" fill="#147B75">REF</text><rect x="40" y="669" width="1120" height="72" rx="8" fill="white" stroke="#CCD7DE"/><rect x="40" y="669" width="5" height="72" rx="2" fill="#AD4D35" stroke="#AD4D35"/><text x="56" y="695.3" font-family="Arial,sans-serif" font-size="15" font-weight="700" fill="#183044">Batas interpretasi</text><text x="56" y="718.84" font-family="Arial,sans-serif" font-size="12" font-weight="400" fill="#183044">Nama MQ tiap kanal motherboard tidak tercantum. Pin konektor modul berbeda dari motherboard; lihat tabel halaman 06.</text><text x="38" y="773.2" font-family="Arial,sans-serif" font-size="10" font-weight="400" fill="#5D7180">Sumber: source-GLD2.zip | Sheet_1 + net PCB; modul sensor: gambar referensi terpisah.</text><text x="1000" y="773.2" font-family="Arial,sans-serif" font-size="10" font-weight="400" fill="#5D7180">09 Sep 2026   |   04 / 10</text></svg>