<svg xmlns="http://www.w3.org/2000/svg" width="1440" height="700" viewBox="0 0 1440 700" role="img" aria-label="MQ8 chart for 13 ON1000 OFF0 HEATING 20260729 220745">
<style>.bg{fill:#ffffff}.grid{stroke:#d8d8d8;stroke-width:1}.axis{stroke:#333;stroke-width:1.5}.raw{fill:none;stroke:#83a6bb;stroke-width:1;stroke-opacity:.55}.bin{fill:none;stroke:#e45756;stroke-width:3}.tick{font:16px Arial;fill:#333}.title{font:600 22px Arial;fill:#111}.legend{font:17px Arial;fill:#222}</style>
<rect class="bg" width="100%" height="100%"/>
<text x="105" y="36" class="title">13 ON1000 OFF0 HEATING 20260729 220745</text>
<line x1="105" y1="610.00" x2="1395" y2="610.00" class="grid"/><line x1="105" y1="502.00" x2="1395" y2="502.00" class="grid"/><line x1="105" y1="394.00" x2="1395" y2="394.00" class="grid"/><line x1="105" y1="286.00" x2="1395" y2="286.00" class="grid"/><line x1="105" y1="178.00" x2="1395" y2="178.00" class="grid"/><line x1="105" y1="70.00" x2="1395" y2="70.00" class="grid"/><line x1="105.00" y1="70" x2="105.00" y2="610" class="grid"/><line x1="363.00" y1="70" x2="363.00" y2="610" class="grid"/><line x1="621.00" y1="70" x2="621.00" y2="610" class="grid"/><line x1="879.00" y1="70" x2="879.00" y2="610" class="grid"/><line x1="1137.00" y1="70" x2="1137.00" y2="610" class="grid"/><line x1="1395.00" y1="70" x2="1395.00" y2="610" class="grid"/>
<line x1="105" y1="610" x2="1395" y2="610" class="axis"/><line x1="105" y1="70" x2="105" y2="610" class="axis"/>
<polyline points="105.34,581.07 105.71,581.06 106.06,581.05 106.40,581.05 106.74,581.05 107.08,581.05 107.43,581.02 107.77,580.94 108.12,580.92 108.46,580.94 108.79,580.91 109.14,575.65 109.49,564.17 109.84,546.76 110.17,523.96 110.52,496.91 110.86,465.76 111.21,431.31 111.58,394.02 111.93,394.02 112.28,394.02 112.62,394.02 112.96,349.57 113.30,304.41 113.64,263.64 113.99,228.75 114.33,199.51 114.68,175.38 115.02,155.26 115.37,138.66 115.71,125.92 116.06,116.46 116.39,113.74 116.74,112.21 117.12,110.95 117.46,110.95 117.81,110.95 118.15,110.95 118.50,109.82 118.85,108.83 119.19,108.19 119.54,107.79 119.88,107.78 120.22,107.12 120.57,105.89 120.91,104.96 121.25,103.71 121.60,102.97 121.94,102.24 122.29,101.75 122.66,101.15 123.01,101.15 123.34,101.15 123.69,101.15 124.03,100.36 124.38,99.85 124.73,99.46 125.06,99.13 125.41,98.97 125.74,98.95 126.09,98.93 126.42,99.23 126.76,99.46 127.11,99.83 127.45,100.60 127.80,101.33 128.17,102.37 128.52,102.37 128.86,102.37 129.21,102.37 129.55,103.93 129.90,105.59 130.24,106.97 130.58,108.57 130.93,110.29 131.27,112.12 131.62,113.99 131.96,115.97 132.31,117.96 132.64,119.85 132.99,121.36 133.33,122.85 133.71,124.50 134.06,124.50 134.40,124.50 134.75,124.50 135.08,126.81 135.43,129.24 135.78,131.76 136.12,134.30 136.47,136.64 136.80,139.14 137.15,141.50 137.50,144.04 137.84,146.63 138.18,149.42 138.52,151.33 138.86,153.13 139.24,155.07 139.58,155.07 139.93,155.07 140.27,155.07 140.61,157.61 140.96,160.11 141.30,162.63 141.64,165.37 141.98,167.87 142.33,170.44 142.67,172.82 143.02,175.62 143.36,178.18 143.70,180.48 144.05,182.31 144.39,184.26 144.76,186.30 145.10,186.30 145.45,186.30 145.80,186.30 146.14,188.72 146.49,191.13 146.83,193.50 147.18,195.86 147.51,198.08 147.85,200.50 148.20,203.00 148.54,205.42 148.88,207.77 149.23,209.99 149.57,211.80 149.92,213.68 150.29,215.61 150.64,215.61 150.99,215.61 151.34,215.61 151.68,217.85 152.02,220.07 152.37,222.27 152.71,224.45 153.05,226.49 153.40,228.50 153.74,230.46 154.09,232.36 154.43,234.41 154.77,236.43 155.11,238.21 155.45,240.00 155.83,241.64 156.17,241.64 156.51,241.64 156.86,241.64 157.20,243.65 157.54,245.61 157.89,247.74 158.23,249.92 158.57,252.11 158.91,253.99 159.25,256.01 159.60,258.38 159.94,260.15 160.29,262.02 160.63,263.47 160.97,265.60 161.34,267.18 161.68,267.18 162.02,267.18 162.37,267.18 162.71,269.04 163.06,270.75 163.40,272.71 163.74,274.33 164.09,275.60 164.42,277.48 164.77,279.41 165.11,281.36 165.45,282.61 165.80,284.20 166.15,285.56 166.49,286.92 166.87,288.30 167.21,288.30 167.55,288.30 167.90,288.30 168.24,290.01 168.58,291.67 168.92,293.14 169.26,294.72 169.61,296.22 169.94,297.65 170.29,299.37 170.63,300.80 170.97,302.48 171.32,303.87 171.67,305.06 172.00,306.15 172.38,307.35 172.72,307.35 173.06,307.35 173.42,307.35 173.76,308.75 174.10,310.19 174.43,311.79 174.77,313.21 175.12,314.57 175.46,315.89 175.81,317.29 176.15,318.67 176.49,320.12 176.84,321.46 177.18,322.68 177.52,323.67 177.90,324.70 178.24,324.70 178.59,324.70 178.93,324.70 179.28,326.03 179.62,327.49 179.97,328.93 180.31,330.34 180.65,331.77 180.99,332.96 181.33,334.27 181.67,335.33 182.01,336.53 182.35,337.77 182.70,338.88 183.04,339.85 183.41,340.49 183.75,340.49 184.10,340.49 184.44,340.49 184.79,341.84 185.13,342.84 185.47,344.02 185.81,345.20 186.15,346.36 186.50,347.68 186.85,348.60 187.19,349.65 187.53,350.64 187.88,351.91 188.22,352.48 188.56,353.32 188.93,354.02 189.27,354.02 189.61,354.02 189.96,354.02 190.30,355.06 190.65,356.09 190.99,357.04 191.33,358.81 191.67,359.72 192.02,360.72 192.36,361.87 192.71,363.02 193.05,364.17 193.39,365.27 193.74,366.20 194.09,367.11 194.46,367.93 194.81,367.93 195.15,367.93 195.49,367.93 195.83,368.29 196.18,369.15 196.53,370.10 196.87,370.34 197.21,371.10 197.56,372.06 197.90,373.13 198.25,373.89 198.59,374.72 198.93,375.69 199.28,376.48 199.62,377.30 200.00,378.13 200.34,378.13 200.69,378.13 201.04,378.13 201.38,379.25 201.73,380.35 202.06,381.18 202.41,382.07 202.75,383.16 203.10,383.92 203.44,384.65 203.78,385.54 204.13,386.43 204.48,387.24 204.82,388.16 205.16,388.76 205.53,389.43 205.87,389.43 206.22,389.43 206.57,389.43 206.91,390.13 207.26,390.69 207.60,391.06 207.94,392.02 208.29,392.87 208.63,393.54 208.97,394.43 209.32,395.41 209.66,396.20 210.01,396.97 210.35,397.77 210.70,398.59 211.07,399.88 211.42,399.88 211.77,399.88 212.11,399.88 212.46,400.62 212.81,401.36 213.15,402.17 213.50,402.80 213.84,403.60 214.19,404.35 214.53,405.09 214.88,405.71 215.21,406.39 215.56,406.96 215.89,407.35 216.23,407.81 216.61,408.32 216.95,408.32 217.29,408.32 217.64,408.32 217.99,408.94 218.33,409.44 218.68,410.25 219.02,410.99 219.36,411.82 219.70,412.32 220.04,412.91 220.39,414.14 220.73,414.80 221.08,415.42 221.42,415.91 221.76,416.53 222.13,416.74 222.49,416.74 222.83,416.74 223.18,416.74 223.52,417.29 223.87,417.86 224.21,418.50 224.55,419.05 224.90,419.17 225.25,419.73 225.58,420.45 225.93,421.07 226.28,421.62 226.61,422.05 226.95,422.49 227.30,422.82 227.67,423.41 228.01,423.41 228.36,423.41 228.71,423.41 229.05,424.17 229.39,424.68 229.73,425.34 230.07,425.93 230.41,426.66 230.75,427.25 231.09,428.00 231.44,428.54 231.78,429.15 232.12,429.47 232.47,429.64 232.82,430.03 233.19,430.43 233.54,430.43 233.89,430.43 234.24,430.43 234.58,430.79 234.93,431.17 235.26,431.67 235.61,432.12 235.95,432.58 236.30,432.78 236.64,433.36 236.98,434.03 237.33,434.40 237.68,435.04 238.02,435.52 238.36,435.90 238.74,436.06 239.08,436.06 239.42,436.06 239.77,436.06 240.11,436.63 240.45,437.19 240.79,437.95 241.13,438.29 241.47,438.70 241.82,439.30 242.17,439.52 242.50,440.10 242.85,440.45 243.19,441.09 243.54,441.43 243.88,441.76 244.25,442.00 244.60,442.00 244.94,442.00 245.29,442.00 245.64,442.64 245.98,443.05 246.33,443.68 246.67,444.00 247.02,444.28 247.36,444.83 247.70,445.27 248.05,445.95 248.39,446.51 248.73,446.64 249.07,446.83 249.42,447.17 249.79,447.27 250.14,447.27 250.48,447.27 250.82,447.27 251.17,447.88 251.51,448.37 251.86,448.75 252.20,449.33 252.55,449.53 252.89,449.92 253.23,450.77 253.58,451.19 253.92,451.86 254.26,452.47 254.60,452.84 254.94,453.08 255.31,453.47 255.65,453.47 256.00,453.47 256.34,453.47 256.69,453.77 257.03,453.89 257.37,454.15 257.72,454.59 258.06,455.11 258.40,455.32 258.75,455.84 259.09,456.21 259.44,456.58 259.79,456.70 260.13,457.07 260.47,457.70 260.85,458.14 261.20,458.14 261.54,458.14 261.89,458.14 262.24,458.70 262.58,459.33 262.91,459.73 263.26,460.00 263.61,460.28 263.95,460.67 264.29,461.37 264.64,461.59 264.98,461.90 265.32,462.12 265.66,461.94 266.01,461.93 266.38,462.16 266.72,462.16 267.06,462.16 267.41,462.16 267.75,462.51 268.10,463.05 268.44,463.44 268.79,463.82 269.13,464.30 269.48,464.79 269.82,465.33 270.17,465.92 270.51,466.37 270.85,466.86 271.20,467.20 271.55,467.59 271.92,467.98 272.27,467.98 272.61,467.98 272.96,467.98 273.30,468.37 273.64,468.55 273.97,468.80 274.32,469.04 274.67,469.50 275.01,470.13 275.35,470.53 275.69,470.89 276.03,471.07 276.37,471.59 276.72,471.76 277.05,472.11 277.43,472.51 277.77,472.51 278.12,472.51 278.46,472.51 278.81,472.86 279.15,473.04 279.49,472.92 279.83,473.29 280.18,473.56 280.52,473.86 280.86,474.09 281.21,474.49 281.55,474.88 281.90,475.18 282.24,475.32 282.58,475.58 282.96,475.80 283.31,475.80 283.66,475.80 284.00,475.80 284.35,475.86 284.69,475.99 285.03,476.15 285.37,476.18 285.72,476.28 286.06,476.55 286.39,476.59 286.74,477.00 287.07,477.20 287.42,477.61 287.76,477.79 288.10,477.95 288.48,478.29 288.83,478.29 289.16,478.29 289.51,478.29 289.85,478.83 290.19,479.12 290.53,479.43 290.88,479.42 291.22,479.53 291.56,479.92 291.91,479.99 292.24,480.19 292.58,480.43 292.93,480.54 293.27,480.44 293.62,480.60 293.99,480.40 294.34,480.40 294.68,480.40 295.03,480.40 295.37,481.18 295.71,481.52 296.05,481.75 296.40,482.01 296.74,482.37 297.08,482.68 297.43,482.98 297.77,483.36 298.12,483.53 298.46,484.01 298.81,483.80 299.15,484.00 299.53,484.08 299.88,484.08 300.22,484.08 300.56,484.08 300.90,484.41 301.24,484.71 301.58,485.01 301.93,485.23 302.27,485.36 302.62,485.60 302.96,485.85 303.30,486.07 303.65,486.27 304.00,486.48 304.34,486.92 304.68,486.74 305.05,487.19 305.41,487.19 305.75,487.19 306.10,487.19 306.44,487.65 306.78,488.27 307.13,488.88 307.47,489.47 307.82,490.08 308.16,490.52 308.50,490.97 308.84,491.23 309.19,491.94 309.54,491.91 309.88,491.63 310.22,491.59 310.60,491.52 310.94,491.52 311.28,491.52 311.63,491.52 311.97,491.30 312.31,491.64 312.66,491.72 313.00,491.79 313.34,491.84 313.69,491.85 314.03,491.95 314.37,492.43 314.71,492.54 315.06,492.52 315.40,492.72 315.75,492.67 316.13,492.55 316.47,492.55 316.82,492.55 317.15,492.55 317.51,492.88 317.85,492.88 318.20,493.16 318.54,493.54 318.87,493.76 319.22,493.73 319.56,493.79 319.91,493.89 320.24,493.85 320.59,494.02 320.93,493.92 321.27,494.08 321.65,494.07 321.99,494.07 322.34,494.07 322.68,494.07 323.02,494.30 323.37,494.43 323.72,494.78 324.05,495.39 324.39,495.59 324.73,496.02 325.08,496.48 325.43,496.97 325.77,497.13 326.11,497.31 326.46,497.66 326.80,497.81 327.17,498.02 327.52,498.02 327.87,498.02 328.21,498.02 328.56,498.02 328.90,498.28 329.24,498.27 329.59,498.40 329.93,498.22 330.28,498.52 330.61,498.62 330.95,498.36 331.30,498.46 331.65,498.62 332.00,498.94 332.34,498.80 332.71,498.88 333.05,498.88 333.40,498.88 333.74,498.88 334.08,498.96 334.43,499.31 334.77,499.53 335.11,499.73 335.45,498.92 335.80,498.30 336.15,498.19 336.49,497.85 336.83,497.62 337.17,497.00 337.52,496.22 337.87,496.10 338.24,495.65 338.58,495.65 338.92,495.65 339.27,495.65 339.61,494.69 339.95,495.69 340.29,496.19 340.63,495.84 340.97,495.85 341.32,496.36 341.66,496.21 342.01,496.40 342.36,496.32 342.70,495.68 343.05,495.87 343.39,495.07 343.76,495.38 344.11,495.38 344.45,495.38 344.80,495.38 345.14,496.14 345.48,496.24 345.83,495.78 346.17,496.67 346.51,497.44 346.86,497.23 347.20,498.06 347.54,499.00 347.88,499.54 348.23,499.19 348.57,498.97 348.92,498.87 349.29,499.10 349.63,499.10 349.97,499.10 350.31,499.10 350.65,499.72 350.99,499.86 351.34,500.03 351.68,500.41 352.03,500.51 352.36,500.48 352.70,501.18 353.05,500.83 353.40,500.74 353.73,500.88 354.08,500.86 354.43,500.32 354.80,500.88 355.15,500.88 355.49,500.88 355.84,500.88 356.18,501.26 356.52,500.62 356.87,500.55 357.22,500.73 357.56,500.73 357.90,500.82 358.24,500.91 358.58,500.13 358.93,500.45 359.27,500.38 359.61,500.18 359.95,501.41 360.33,502.63 360.68,502.63 361.02,502.63 361.37,502.63 361.71,502.53 362.05,502.53 362.39,503.09 362.73,502.99 363.08,503.07 363.43,502.99 363.77,503.52 364.11,503.22 364.45,502.29 364.80,501.41 365.14,501.48 365.48,502.51 365.85,503.03 366.19,503.03 366.53,503.03 366.87,503.03 367.22,503.17 367.56,504.17 367.90,504.23 368.25,503.61 368.58,503.55 368.93,503.74 369.27,504.84 369.63,504.53 369.96,505.02 370.31,505.01 370.66,505.81 371.00,505.11 371.37,505.49 371.72,505.49 372.06,505.49 372.40,505.49 372.74,506.09 373.09,506.59 373.43,507.03 373.78,506.11 374.12,506.93 374.48,506.83 374.82,507.26 375.17,507.59 375.51,508.46 375.85,509.15 376.20,508.95 376.54,508.55 376.92,508.28 377.26,508.28 377.61,508.28 377.95,508.28 378.30,509.55 378.64,509.63 378.98,508.67 379.32,507.69 379.66,507.59 380.01,508.01 380.35,508.04 380.69,508.60 381.04,509.79 381.38,510.91 381.72,510.76 382.07,510.33 382.45,510.83 382.79,510.83 383.14,510.83 383.48,510.83 383.82,511.87 384.15,511.99 384.50,512.18 384.85,511.71 385.19,511.99 385.54,512.13 385.88,511.82 386.22,511.34 386.57,511.23 386.92,511.88 387.26,511.94 387.60,512.45 387.98,512.40 388.32,512.40 388.66,512.40 389.00,512.40 389.34,513.29 389.68,512.75 390.02,512.52 390.37,512.66 390.71,512.84 391.05,513.03 391.39,512.99 391.73,512.64 392.08,512.67 392.42,512.55 392.76,512.49 393.10,512.73 393.48,512.76 393.82,512.76 394.17,512.76 394.52,512.76 394.86,513.41 395.21,513.28 395.55,514.14 395.89,514.72 396.23,514.81 396.58,514.33 396.92,514.95 397.27,515.73 397.61,515.72 397.95,515.67 398.30,515.82 398.64,517.14 399.01,517.02 399.36,517.02 399.70,517.02 400.05,517.02 400.39,516.80 400.73,518.09 401.07,519.21 401.41,518.29 401.76,517.30 402.10,518.00 402.44,518.96 402.78,518.57 403.12,517.68 403.47,518.35 403.81,518.19 404.16,517.52 404.54,517.50 404.88,517.50 405.23,517.50 405.57,517.50 405.91,518.12 406.25,519.26 406.59,519.80 406.94,519.64 407.28,520.16 407.62,520.23 407.97,520.25 408.32,520.30 408.66,521.25 409.01,521.13 409.35,521.64 409.69,521.47 410.06,521.63 410.40,521.63 410.74,521.63 411.09,521.63 411.44,521.88 411.78,521.53 412.12,522.01 412.46,521.78 412.80,522.85 413.15,521.78 413.49,521.94 413.83,521.37 414.18,520.66 414.53,519.74 414.87,520.28 415.21,521.24 415.58,521.35 415.93,521.35 416.27,521.35 416.62,521.35 416.97,522.16 417.32,521.34 417.66,522.69 418.00,522.57 418.34,523.38 418.69,524.08 419.03,524.45 419.37,524.12 419.71,523.33 420.06,524.05 420.41,523.63 420.75,523.92 421.12,524.04 421.47,524.04 421.82,524.04 422.16,524.04 422.50,523.73 422.85,524.04 423.19,523.76 423.53,524.12 423.87,524.45 424.21,525.44 424.55,524.69 424.90,524.25 425.24,525.18 425.58,525.38 425.93,525.77 426.27,524.85 426.65,525.78 426.99,525.78 427.34,525.78 427.69,525.78 428.03,526.19 428.38,525.71 428.71,525.74 429.05,526.68 429.40,526.79 429.74,526.94 430.09,525.73 430.44,526.17 430.78,527.28 431.12,526.42 431.46,526.55 431.81,526.55 432.18,526.10 432.52,526.10 432.88,526.10 433.22,526.10 433.57,525.89 433.91,526.61 434.25,525.67 434.59,527.11 434.93,527.24 435.28,527.39 435.62,528.73 435.96,529.09 436.30,530.15 436.65,529.64 436.99,530.34 437.34,530.22 437.71,530.21 438.05,530.21 438.39,530.21 438.74,530.21 439.08,529.32 439.43,528.96 439.78,528.15 440.11,527.73 440.46,527.58 440.80,526.45 441.14,527.30 441.48,526.82 441.83,527.52 442.16,528.61 442.50,528.67 442.85,528.78 443.22,528.58 443.56,528.58 443.91,528.58 444.26,528.58 444.60,529.07 444.94,528.44 445.29,528.84 445.63,528.27 445.97,527.62 446.31,526.49 446.66,525.74 447.01,526.58 447.35,526.27 447.68,527.20 448.03,526.65 448.38,526.53 448.75,526.29 449.09,526.29 449.45,526.29 449.80,526.29 450.13,527.06 450.48,528.28 450.83,528.56 451.17,528.98 451.51,528.40 451.85,529.11 452.20,529.36 452.54,529.73 452.89,529.66 453.23,530.87 453.57,530.58 453.92,529.67 454.29,530.04 454.64,530.04 454.99,530.04 455.34,530.04 455.68,530.11 456.02,529.83 456.37,530.04 456.71,530.23 457.05,529.61 457.40,530.23 457.74,529.13 458.09,529.71 458.43,529.71 458.77,529.71 459.11,529.51 459.45,529.89 459.96,529.79 460.30,529.79 460.65,529.79 461.04,529.40 461.39,530.18 461.72,531.36 462.07,531.70 462.41,531.15 462.75,531.21 463.09,532.02 463.44,532.84 463.78,532.40 464.12,532.49 464.47,532.97 464.81,532.95 465.19,531.86 465.54,531.86 465.88,531.86 466.22,531.86 466.55,531.54 466.90,532.65 467.24,532.86 467.58,533.07 467.92,532.97 468.26,533.08 468.60,533.41 468.95,532.51 469.29,532.61 469.63,533.44 469.97,534.67 470.32,533.61 470.70,534.86 471.03,534.86 471.38,534.86 471.72,534.86 472.06,534.78 472.41,535.09 472.75,535.52 473.10,536.35 473.45,537.69 473.79,537.95 474.13,538.05 474.46,537.13 474.81,537.20 475.15,536.18 475.49,536.45 475.83,535.85 476.21,536.09 476.56,536.09 476.90,536.09 477.24,536.09 477.59,534.86 477.93,534.94 478.28,535.31 478.62,534.73 478.96,535.20 479.31,535.49 479.65,536.06 479.99,535.65 480.33,535.67 480.68,536.48 481.02,537.38 481.36,537.39 481.74,536.59 482.08,536.59 482.43,536.59 482.77,536.59 483.11,536.37 483.46,536.33 483.80,537.35 484.15,536.86 484.49,536.16 484.83,536.87 485.18,536.92 485.52,537.14 485.86,537.01 486.21,536.90 486.55,537.81 486.89,538.23 487.26,537.65 487.61,537.65 487.96,537.65 488.30,537.65 488.65,538.86 488.99,539.39 489.33,538.71 489.68,538.85 490.02,538.85 490.36,538.11 490.71,539.27 491.05,538.78 491.40,538.70 491.74,539.27 492.08,539.46 492.42,539.14 492.80,539.62 493.14,539.62 493.48,539.62 493.83,539.62 494.17,539.12 494.51,538.17 494.85,538.44 495.19,537.37 495.55,537.97 495.89,538.52 496.23,537.95 496.57,537.82 496.92,539.08 497.26,539.82 497.60,540.30 497.94,540.74 498.32,541.70 498.66,541.70 499.00,541.70 499.35,541.70 499.69,542.12 500.03,542.55 500.37,541.73 500.72,542.40 501.07,541.46 501.42,540.41 501.77,540.51 502.11,540.39 502.45,540.52 502.79,540.10 503.14,540.78 503.49,540.12 503.86,541.11 504.21,541.11 504.55,541.11 504.89,541.11 505.24,540.10 505.58,540.46 505.93,540.86 506.27,540.37 506.61,539.62 506.95,539.64 507.30,539.59 507.64,538.65 507.99,538.02 508.33,538.21 508.67,539.04 509.01,538.75 509.38,538.51 509.74,538.51 510.08,538.51 510.43,538.51 510.78,539.12 511.12,540.40 511.46,540.00 511.81,540.38 512.15,541.54 512.49,542.21 512.84,541.64 513.18,542.11 513.53,542.06 513.87,542.61 514.21,542.44 514.55,542.09 514.93,542.26 515.27,542.26 515.61,542.26 515.95,542.26 516.29,541.33 516.64,540.84 516.99,541.54 517.33,542.07 517.68,542.25 518.02,543.48 518.37,543.51 518.71,542.61 519.05,542.78 519.40,542.84 519.75,543.42 520.09,544.23 520.46,543.33 520.81,543.33 521.16,543.33 521.51,543.33 521.85,542.39 522.19,542.34 522.54,541.74 522.89,541.40 523.23,541.59 523.57,540.86 523.91,540.90 524.25,541.99 524.59,540.91 524.94,541.82 525.28,542.63 525.63,541.75 526.00,542.51 526.35,542.51 526.69,542.51 527.04,542.51 527.38,543.66 527.72,543.93 528.07,543.93 528.41,544.97 528.75,543.64 529.10,543.62 529.45,543.26 529.79,543.61 530.13,543.95 530.48,544.26 530.82,543.26 531.16,543.79 531.53,544.05 531.88,544.05 532.22,544.05 532.56,544.05 532.90,544.02 533.25,544.27 533.59,544.29 533.93,544.49 534.27,544.90 534.62,545.67 534.96,544.36 535.30,544.71 535.64,544.87 535.99,544.43 536.33,544.31 536.67,545.18 537.05,545.28 537.38,545.28 537.73,545.28 538.07,545.28 538.42,546.13 538.76,545.39 539.10,544.26 539.44,545.27 539.78,545.74 540.13,545.13 540.48,546.75 540.81,546.32 541.16,545.27 541.51,545.70 541.85,545.38 542.19,546.15 542.55,546.41 542.90,546.41 543.25,546.41 543.59,546.41 543.94,546.69 544.29,545.84 544.63,545.77 544.98,545.62 545.32,546.58 545.66,547.61 546.00,548.14 546.35,548.46 546.69,548.46 547.04,549.37 547.38,548.43 547.73,548.77 548.09,549.28 548.44,549.28 548.79,549.28 549.13,549.28 549.47,549.38 549.82,548.34 550.17,547.54 550.51,547.20 550.85,546.36 551.19,545.87 551.53,545.29 551.88,545.39 552.22,545.38 552.56,545.32 552.91,544.36 553.26,544.39 553.62,545.47 553.97,545.47 554.31,545.47 554.65,545.47 554.99,545.88 555.33,546.03 555.68,546.62 556.02,546.51 556.36,547.40 556.71,548.61 557.05,548.25 557.39,548.58 557.74,549.73 558.09,549.61 558.43,549.70 558.77,549.23 559.14,549.21 559.48,549.21 559.82,549.21 560.16,549.21 560.52,550.21 560.85,549.12 561.20,549.03 561.55,549.07 561.89,549.62 562.23,548.96 562.58,549.14 562.92,549.28 563.26,549.13 563.60,549.42 563.94,549.36 564.29,550.46 564.66,549.47 565.00,549.47 565.35,549.47 565.69,549.47 566.04,550.19 566.39,550.19 566.73,549.83 567.07,548.86 567.41,548.46 567.76,549.48 568.10,548.92 568.44,549.01 568.78,548.08 569.13,549.00 569.48,549.46 569.82,549.89 570.18,549.74 570.51,549.74 570.86,549.74 571.21,549.74 571.55,549.78 571.89,549.50 572.22,549.96 572.57,549.52 572.91,549.52 573.24,550.88 573.58,550.84 573.93,549.57 574.27,548.84 574.61,549.02 574.95,549.81 575.30,550.14 575.67,549.96 576.01,549.96 576.36,549.96 576.70,549.96 577.04,550.68 577.39,550.67 577.73,550.55 578.07,550.25 578.42,550.30 578.77,550.68 579.11,551.04 579.45,551.29 579.79,550.72 580.14,550.70 580.48,550.42 580.82,550.70 581.18,550.47 581.53,550.47 581.87,550.47 582.21,550.47 582.56,550.90 582.91,551.80 583.25,552.08 583.59,553.01 583.93,553.01 584.28,553.35 584.62,552.82 584.96,552.32 585.30,551.27 585.64,550.71 585.98,549.87 586.32,550.42 586.69,550.42 587.03,550.42 587.37,550.42 587.72,550.42 588.06,549.87 588.40,549.73 588.75,550.82 589.09,551.84 589.44,552.35 589.78,553.48 590.12,554.42 590.46,554.65 590.80,553.81 591.15,553.34 591.48,554.06 591.83,553.07 592.19,553.02 592.53,553.02 592.88,553.02 593.22,553.02 593.56,551.54 593.90,551.01 594.24,550.91 594.58,549.45 594.93,550.11 595.28,549.74 595.62,548.87 595.97,547.58 596.31,548.87 596.64,547.32 596.99,548.32 597.34,548.39 597.69,548.38 598.04,548.38 598.38,548.38 598.72,548.38 599.06,548.69 599.40,548.12 599.75,549.27 600.09,550.86 600.43,551.07 600.77,551.15 601.11,552.13 601.46,552.08 601.80,553.09 602.14,551.98 602.48,552.16 602.82,552.83 603.18,552.05 603.52,552.05 603.87,552.05 604.21,552.05 604.56,550.83 604.90,551.20 605.25,550.09 605.58,550.71 605.94,549.71 606.28,549.65 606.62,549.68 606.97,549.34 607.31,548.26 607.66,548.46 608.00,549.94 608.35,550.59 608.71,550.41 609.05,550.41 609.40,550.41 609.74,550.41 610.08,550.29 610.43,551.45 610.78,551.45 611.12,551.68 611.46,553.29 611.80,553.31 612.14,553.74 612.49,553.37 612.83,552.55 613.17,552.70 613.52,551.18 613.86,550.05 614.22,548.79 614.57,548.79 614.91,548.79 615.26,548.79 615.60,549.30 615.94,548.45 616.28,549.69 616.63,548.80 616.98,548.54 617.32,549.43 617.66,550.80 618.00,552.51 618.35,553.24 618.70,554.78 619.04,554.40 619.38,553.62 619.74,553.09 620.09,553.09 620.43,553.09 620.78,553.09 621.12,553.05 621.46,553.05 621.82,552.94 622.16,552.44 622.51,551.79 622.85,552.63 623.19,551.51 623.53,551.52 623.88,552.23 624.22,551.76 624.56,551.95 624.91,551.50 625.26,551.67 625.61,551.67 625.95,551.67 626.29,551.67 626.64,551.36 626.98,550.63 627.33,550.00 627.67,549.83 628.02,549.73 628.36,549.04 628.70,548.89 629.04,549.45 629.39,549.42 629.74,549.42 630.08,549.44 630.42,549.94 630.79,550.36 631.13,550.36 631.48,550.36 631.82,550.36 632.16,550.75 632.51,550.41 632.85,550.76 633.19,550.68 633.54,551.08 633.88,551.72 634.22,550.57 634.56,549.94 634.90,549.52 635.25,549.42 635.58,549.08 635.92,549.19 636.28,548.93 636.63,548.93 636.97,548.93 637.32,548.93 637.67,549.96 638.00,549.27 638.34,549.66 638.69,549.94 639.03,550.21 639.38,551.17 639.71,550.18 640.05,551.71 640.40,551.71 640.74,551.93 641.09,552.28 641.43,552.14 641.79,550.79 642.13,550.79 642.48,550.79 642.82,550.79 643.16,551.03 643.51,552.29 643.85,552.69 644.19,553.92 644.53,552.55 644.87,552.80 645.22,552.88 645.56,552.59 645.90,553.20 646.24,553.12 646.58,553.16 646.92,552.44 647.28,552.01 647.63,552.01 647.98,552.01 648.31,552.01 648.66,551.79 649.00,552.04 649.35,552.99 649.69,552.74 650.04,551.86 650.38,550.91 650.72,552.05 651.07,551.81 651.41,551.01 651.74,550.21 652.09,549.88 652.43,550.98 652.79,550.81 653.14,550.81 653.49,550.81 653.82,550.81 654.16,552.09 654.51,552.05 654.85,553.54 655.20,552.90 655.54,552.57 655.88,553.44 656.23,553.46 656.57,552.95 656.91,552.19 657.25,552.11 657.60,551.72 657.94,552.64 658.30,552.64 658.65,552.64 658.99,552.64 659.33,552.64 659.67,552.96 660.01,552.99 660.37,553.48 660.71,554.96 661.05,554.84 661.40,554.83 661.74,554.56 662.08,554.85 662.42,555.41 662.76,554.48 663.11,555.11 663.46,555.48 663.82,555.50 664.17,555.50 664.51,555.50 664.86,555.50 665.20,554.10 665.54,555.16 665.89,555.75 666.23,556.10 666.57,556.19 666.91,555.22 667.26,554.81 667.60,554.62 667.95,555.77 668.28,555.51 668.64,556.84 668.98,557.28 669.34,556.39 669.69,556.39 670.03,556.39 670.38,556.39 670.71,556.05 671.06,554.96 671.40,555.22 671.74,556.52 672.08,555.97 672.42,554.82 672.76,553.84 673.10,552.90 673.45,552.91 673.78,554.17 674.13,553.65 674.47,554.50 674.83,554.09 675.18,554.09 675.52,554.09 675.86,554.09 676.21,552.86 676.54,553.45 676.88,553.83 677.23,554.09 677.57,553.62 677.91,552.10 678.25,551.93 678.59,553.16 678.93,552.62 679.27,553.41 679.62,554.26 679.97,552.96 680.33,552.93 680.68,552.93 681.02,552.93 681.36,552.93 681.70,553.42 682.05,553.33 682.38,554.71 682.73,554.60 683.07,553.58 683.42,553.10 683.76,552.22 684.11,551.52 684.44,553.04 684.79,552.47 685.13,551.64 685.48,552.04 685.84,551.57 686.18,551.57 686.52,551.57 686.87,551.57 687.21,550.76 687.55,551.88 687.90,552.06 688.24,552.49 688.58,553.41 688.93,553.16 689.28,553.34 689.62,555.03 689.96,555.94 690.30,556.41 690.65,556.09 690.99,556.09 691.35,557.47 691.69,557.47 692.03,557.47 692.37,557.47 692.72,557.13 693.06,557.38 693.40,556.46 693.75,557.86 694.10,556.70 694.44,556.05 694.78,554.94 695.12,555.96 695.46,555.02 695.81,554.38 696.15,555.00 696.49,553.90 696.86,554.61 697.20,554.61 697.54,554.61 697.88,554.61 698.23,552.98 698.58,553.93 698.92,554.44 699.26,554.47 699.60,554.70 699.95,554.89 700.29,555.97 700.64,556.05 700.98,556.18 701.31,556.92 701.66,556.99 702.00,555.95 702.36,555.94 702.70,555.94 703.04,555.94 703.38,555.94 703.73,556.09 704.06,556.00 704.41,556.26 704.75,554.90 705.09,555.02 705.44,555.90 705.78,554.50 706.13,555.33 706.48,555.29 706.82,554.70 707.17,555.41 707.50,555.55 707.87,556.39 708.20,556.39 708.55,556.39 708.90,556.39 709.24,557.47 709.57,556.84 709.92,557.19 710.26,557.27 710.60,557.90 710.96,559.25 711.29,560.69 711.64,561.09 711.98,560.31 712.33,558.86 712.67,559.06 713.01,560.33 713.37,559.09 713.72,559.09 714.07,559.09 714.42,559.09 714.76,558.94 715.11,557.87 715.45,556.77 715.80,555.72 716.15,554.46 716.50,555.43 716.84,556.64 717.18,555.16 717.53,554.04 717.89,555.40 718.23,556.77 718.57,556.55 718.93,557.66 719.28,557.66 719.62,557.66 719.97,557.66 720.32,557.65 720.66,558.48 721.01,557.14 721.36,557.21 721.70,558.11 722.05,557.97 722.39,556.57 722.73,556.06 723.08,557.11 723.43,556.61 723.77,556.10 724.11,555.16 724.48,555.16 724.82,555.16 725.16,555.16 725.51,555.16 725.85,554.87 726.20,553.82 726.54,553.88 726.88,554.45 727.23,554.55 727.58,553.62 727.93,553.66 728.27,554.07 728.61,554.78 728.96,555.03 729.31,554.53 729.65,555.89 730.01,557.10 730.36,557.10 730.70,557.10 731.05,557.10 731.40,556.46 731.74,556.90 732.08,557.35 732.42,557.72 732.77,557.31 733.11,556.70 733.46,558.05 733.80,559.08 734.14,558.28 734.48,557.77 734.83,558.69 735.17,558.56 735.53,557.83 735.88,557.83 736.22,557.83 736.57,557.83 736.91,556.65 737.25,557.54 737.59,558.03 737.94,557.58 738.28,556.93 738.62,557.60 738.96,556.40 739.30,555.68 739.65,555.93 739.98,557.53 740.32,557.57 740.67,557.91 741.03,557.49 741.38,557.49 741.72,557.49 742.06,557.49 742.41,556.34 742.75,556.89 743.10,555.71 743.44,557.13 743.79,557.65 744.13,556.36 744.48,556.26 744.82,555.86 745.16,555.60 745.51,556.63 745.85,557.08 746.19,556.29 746.56,557.64 746.90,557.64 747.24,557.64 747.59,557.64 747.93,557.22 748.28,557.04 748.63,557.53 748.97,556.93 749.31,557.54 749.66,556.56 750.00,557.12 750.34,557.63 750.69,558.26 751.03,557.02 751.37,556.31 751.71,557.28 752.07,557.94 752.42,557.94 752.77,557.94 753.11,557.94 753.45,558.20 753.79,558.31 754.14,558.39 754.48,558.02 754.83,557.66 755.16,557.83 755.51,558.33 755.86,558.57 756.20,557.73 756.53,558.15 756.87,556.90 757.21,556.58 757.58,556.72 757.93,556.72 758.27,556.72 758.62,556.72 758.96,556.16 759.30,556.03 759.64,556.10 759.99,557.12 760.33,556.80 760.67,558.00 761.02,556.69 761.36,557.95 761.71,557.99 762.06,558.99 762.39,558.71 762.74,558.58 763.10,557.62 763.44,557.62 763.79,557.62 764.13,557.62 764.48,557.85 764.82,558.08 765.17,557.75 765.51,557.67 765.86,557.65 766.20,559.14 766.55,559.13 766.90,558.62 767.23,559.19 767.58,559.07 767.92,558.53 768.26,559.99 768.62,559.52 768.97,559.52 769.31,559.52 769.66,559.52 770.01,559.74 770.35,559.54 770.70,558.26 771.04,557.20 771.38,558.96 771.72,559.35 772.07,559.08 772.41,559.74 772.75,558.54 773.09,559.36 773.44,559.04 773.79,558.69 774.15,560.01 774.50,560.01 774.84,560.01 775.18,560.01 775.51,560.22 775.85,558.68 776.19,558.81 776.53,558.89 776.87,557.78 777.22,557.58 777.56,556.01 777.90,557.27 778.24,558.50 778.58,557.73 778.92,558.97 779.26,559.10 779.63,558.57 779.98,558.57 780.33,558.57 780.68,558.57 781.02,558.77 781.36,558.14 781.71,558.53 782.05,559.97 782.40,559.49 782.75,559.20 783.09,559.14 783.43,558.06 783.78,557.90 784.12,557.12 784.46,557.76 784.80,557.88 785.17,558.34 785.51,558.34 785.85,558.34 786.19,558.34 786.54,558.61 786.89,559.54 787.23,558.13 787.57,559.06 787.91,558.83 788.25,560.46 788.59,560.64 788.94,560.13 789.28,560.38 789.62,560.64 789.97,560.33 790.31,558.99 790.67,559.22 791.01,559.22 791.35,559.22 791.70,559.22 792.05,557.95 792.39,557.98 792.73,558.05 793.08,558.78 793.42,558.69 793.77,560.21 794.11,559.36 794.45,559.34 794.79,559.81 795.13,559.92 795.48,560.52 795.83,562.11 796.19,560.58 796.53,560.58 796.87,560.58 797.22,560.58 797.56,560.46 797.90,561.60 798.24,560.87 798.59,560.53 798.94,560.25 799.28,561.14 799.63,562.82 799.97,563.25 800.31,562.10 800.65,562.41 801.00,563.45 801.34,563.21 801.70,563.18 802.04,563.18 802.39,563.18 802.74,563.18 803.08,563.96 803.43,564.24 803.78,562.50 804.12,561.32 804.46,560.06 804.80,560.11 805.15,560.12 805.49,559.71 805.83,560.16 806.17,560.60 806.52,559.97 806.86,558.63 807.22,559.79 807.57,559.79 807.92,559.79 808.25,559.79 808.59,560.41 808.94,560.75 809.28,560.02 809.62,561.23 809.96,560.43 810.30,559.70 810.65,559.07 811.00,559.93 811.33,559.77 811.68,560.03 812.02,558.79 812.36,559.83 812.73,561.41 813.06,561.41 813.41,561.41 813.75,561.41 814.09,559.79 814.44,559.34 814.78,558.38 815.13,558.02 815.48,557.00 815.83,558.24 816.17,556.96 816.51,557.11 816.86,556.35 817.20,556.43 817.55,556.56 817.89,558.07 818.25,559.76 818.60,559.76 818.95,559.76 819.29,559.76 819.63,559.99 819.97,560.83 820.31,561.23 820.65,561.33 820.99,562.72 821.33,562.05 821.68,560.52 822.02,560.98 822.36,559.84 822.70,558.06 823.05,557.63 823.40,558.25 823.76,556.83 824.10,556.83 824.44,556.83 824.79,556.83 825.13,558.14 825.46,557.52 825.82,558.41 826.16,560.01 826.50,560.78 826.84,561.10 827.19,561.37 827.54,561.37 827.87,561.42 828.21,561.21 828.56,559.79 828.90,559.52 829.26,558.89 829.60,558.89 829.95,558.89 830.30,558.89 830.65,557.64 830.99,558.06 831.34,557.39 831.68,557.36 832.02,558.74 832.36,557.43 832.71,558.90 833.06,560.50 833.40,561.24 833.74,562.45 834.08,562.66 834.43,562.14 834.79,563.12 835.13,563.12 835.48,563.12 835.82,563.12 836.16,564.45 836.50,563.98 836.85,564.82 837.19,564.16 837.53,563.39 837.87,561.80 838.22,560.55 838.56,560.99 838.90,561.13 839.25,560.99 839.59,560.74 839.94,560.17 840.30,559.40 840.65,559.40 840.99,559.40 841.33,559.40 841.67,560.29 842.02,561.19 842.36,561.24 842.70,562.80 843.04,561.78 843.38,560.52 843.73,560.34 844.07,559.66 844.41,560.51 844.76,561.91 845.10,560.59 845.44,559.98 845.80,560.32 846.15,560.32 846.50,560.32 846.84,560.32 847.19,559.76 847.54,561.46 847.88,563.02 848.22,562.76 848.57,562.96 848.91,563.20 849.26,562.68 849.61,563.19 849.95,563.72 850.30,564.79 850.64,565.11 850.99,565.03 851.34,565.08 851.69,565.08 852.04,565.08 852.38,565.08 852.73,565.01 853.06,564.52 853.41,564.78 853.75,564.20 854.09,564.57 854.44,563.91 854.79,562.72 855.13,561.17 855.47,560.78 855.81,559.43 856.16,559.10 856.50,560.48 856.86,559.78 857.21,559.78 857.55,559.78 857.90,559.78 858.24,559.29 858.58,558.35 858.93,558.17 859.27,558.57 859.62,560.54 859.97,559.85 860.31,561.33 860.64,561.56 860.99,561.47 861.33,560.71 861.67,561.48 862.01,561.59 862.37,562.01 862.72,562.01 863.06,562.01 863.41,562.01 863.75,563.41 864.10,561.89 864.44,563.17 864.78,562.31 865.12,563.71 865.47,562.35 865.81,562.75 866.15,563.13 866.50,564.36 866.84,564.32 867.19,562.56 867.53,564.08 867.89,564.11 868.23,564.11 868.58,564.11 868.92,564.11 869.27,563.50 869.61,563.62 869.95,564.43 870.29,565.11 870.63,564.48 870.98,563.22 871.31,562.52 871.65,563.66 872.00,562.61 872.33,561.06 872.68,561.64 873.02,560.08 873.39,560.57 873.73,560.57 874.09,560.57 874.43,560.57 874.77,559.10 875.11,559.78 875.46,561.10 875.80,562.57 876.14,563.23 876.49,564.49 876.83,566.02 877.17,565.87 877.51,567.61 877.86,567.15 878.20,568.49 878.54,569.29 878.90,569.59 879.24,569.59 879.59,569.59 879.94,569.59 880.28,567.68 880.62,566.76 880.96,566.25 881.31,565.30 881.66,566.53 882.01,566.15 882.35,565.96 882.69,566.36 883.03,565.88 883.38,564.08 883.72,565.64 884.06,564.70 884.42,563.17 884.76,563.17 885.11,563.17 885.45,563.17 885.79,564.14 886.13,562.74 886.48,562.92 886.82,562.73 887.17,561.07 887.52,561.23 887.85,562.97 888.20,561.78 888.55,562.51 888.89,562.50 889.22,562.25 889.57,561.76 889.94,561.21 890.27,561.21 890.61,561.21 890.96,561.21 891.30,560.82 891.65,562.14 891.99,561.67 892.34,560.83 892.68,560.95 893.02,561.65 893.36,562.35 893.70,562.11 894.05,562.25 894.39,561.38 894.74,561.93 895.07,561.79 895.44,562.41 895.79,562.41 896.13,562.41 896.48,562.41 896.83,561.88 897.17,562.48 897.51,562.93 897.85,564.12 898.20,564.56 898.55,566.13 898.89,566.75 899.22,566.52 899.57,567.09 899.92,567.32 900.26,568.43 900.60,567.60 900.97,566.64 901.32,566.64 901.66,566.64 902.02,566.64 902.35,566.28 902.69,566.36 903.03,566.31 903.37,567.01 903.72,568.18 904.06,566.53 904.40,565.95 904.74,566.30 905.08,566.94 905.43,565.99 905.77,566.46 906.11,566.38 906.48,565.22 906.83,565.22 907.17,565.22 907.51,565.22 907.86,563.94 908.20,563.27 908.54,564.07 908.89,562.88 909.23,563.01 909.58,563.37 909.93,563.65 910.27,562.02 910.61,560.84 910.95,560.98 911.29,560.74 911.64,561.66 912.00,562.46 912.35,562.46 912.68,562.46 913.03,562.46 913.37,562.96 913.72,562.83 914.06,562.08 914.40,562.87 914.74,564.04 915.09,565.36 915.43,565.49 915.78,567.44 916.12,567.47 916.47,567.09 916.82,566.33 917.16,566.33 917.52,566.03 917.87,566.03 918.21,566.03 918.55,566.03 918.89,566.40 919.23,566.17 919.59,565.76 919.93,565.41 920.28,563.54 920.62,563.24 920.97,562.61 921.32,563.11 921.66,561.41 922.00,562.08 922.34,562.96 922.68,562.22 923.04,562.55 923.39,562.55 923.73,562.55 924.08,562.55 924.42,563.62 924.76,563.84 925.11,564.40 925.45,565.23 925.80,566.40 926.14,567.81 926.48,567.64 926.82,566.83 927.17,566.46 927.51,564.93 927.86,564.29 928.20,565.83 928.56,565.34 928.91,565.34 929.26,565.34 929.60,565.34 929.94,564.38 930.29,564.67 930.63,563.59 930.98,564.22 931.33,563.94 931.68,563.95 932.03,565.46 932.37,566.49 932.71,566.38 933.05,566.61 933.39,567.21 933.74,567.39 934.10,568.30 934.44,568.30 934.79,568.30 935.13,568.30 935.47,568.96 935.81,569.69 936.15,571.57 936.50,571.52 936.84,571.02 937.18,570.80 937.53,569.86 937.88,569.06 938.22,568.08 938.56,567.31 938.90,565.74 939.24,565.74 939.60,564.03 939.95,564.03 940.30,564.03 940.64,564.03 940.99,562.89 941.33,562.85 941.67,562.82 942.01,563.72 942.35,564.79 942.70,564.47 943.04,565.43 943.38,565.32 943.73,565.00 944.07,566.33 944.42,567.95 944.76,568.72 945.12,568.67 945.47,568.67 945.83,568.67 946.17,568.67 946.52,567.06 946.86,567.14 947.21,566.74 947.55,565.95 947.90,567.03 948.24,567.38 948.58,567.60 948.93,566.71 949.28,566.00 949.62,565.06 949.96,566.35 950.31,565.97 950.67,567.01 951.02,567.01 951.36,567.01 951.71,567.01 952.05,566.48 952.39,566.78 952.73,565.80 953.08,565.59 953.42,565.93 953.76,566.71 954.10,568.20 954.45,568.46 954.80,567.75 955.14,567.50 955.48,567.88 955.82,567.91 956.18,568.62 956.52,568.62 956.87,568.62 957.21,568.62 957.56,568.76 957.90,567.36 958.24,566.12 958.58,564.76 958.92,564.32 959.27,564.86 959.62,564.00 959.96,563.78 960.30,563.03 960.64,561.91 960.98,560.91 961.33,562.11 961.69,561.90 962.03,561.90 962.38,561.90 962.72,561.90 963.06,561.65 963.41,561.79 963.75,562.76 964.10,563.39 964.44,564.32 964.78,565.26 965.12,566.51 965.47,566.32 965.81,565.53 966.15,566.09 966.49,567.95 966.84,568.07 967.20,567.61 967.54,567.61 967.89,567.61 968.24,567.61 968.57,567.66 968.92,566.69 969.26,566.85 969.60,566.53 969.94,566.53 970.29,567.75 970.64,568.30 970.98,566.56 971.32,565.39 971.66,564.33 972.01,564.59 972.35,566.06 972.72,565.29 973.06,565.29 973.42,565.29 973.76,565.29 974.10,565.91 974.45,566.84 974.79,565.54 975.13,564.86 975.47,564.96 975.81,565.56 976.16,567.36 976.50,566.45 976.85,565.17 977.19,565.61 977.54,565.72 977.87,565.41 978.24,565.41 978.58,565.41 978.92,565.41 979.27,565.41 979.61,564.96 979.95,565.37 980.30,566.38 980.63,564.80 980.97,564.98 981.31,565.60 981.66,565.77 982.00,564.83 982.34,565.21 982.68,566.91 983.03,568.30 983.38,568.73 983.74,568.26 984.08,568.26 984.43,568.26 984.78,568.26 985.12,568.49 985.46,569.46 985.80,569.36 986.15,567.97 986.50,566.82 986.84,567.24 987.18,567.31 987.52,567.53 987.87,568.34 988.22,567.00 988.56,567.53 988.90,567.22 989.27,566.63 989.61,566.63 989.96,566.63 990.31,566.63 990.65,568.19 990.99,568.53 991.33,567.29 991.67,565.33 992.02,564.45 992.36,563.95 992.70,564.90 993.05,565.57 993.40,565.67 993.74,565.55 994.08,565.58 994.42,567.12 994.78,568.46 995.13,568.46 995.47,568.46 995.81,568.46 996.16,569.96 996.50,570.26 996.84,570.43 997.18,571.46 997.53,571.13 997.87,570.26 998.21,571.70 998.56,569.85 998.91,568.16 999.25,566.33 999.59,566.53 999.94,566.30 1000.30,565.29 1000.65,565.29 1000.99,565.29 1001.33,565.29 1001.68,563.82 1002.02,564.25 1002.36,564.00 1002.71,563.12 1003.05,564.23 1003.40,565.46 1003.74,567.33 1004.08,567.56 1004.42,567.12 1004.76,567.33 1005.11,566.99 1005.45,565.55 1005.81,566.68 1006.16,566.68 1006.51,566.68 1006.86,566.68 1007.20,567.66 1007.55,568.19 1007.89,568.33 1008.24,567.79 1008.58,567.41 1008.92,567.22 1009.26,567.25 1009.61,569.11 1009.95,570.74 1010.29,571.42 1010.63,571.16 1010.98,571.73 1011.34,572.02 1011.68,572.02 1012.03,572.02 1012.37,572.02 1012.71,570.96 1013.06,569.45 1013.40,570.95 1013.74,570.28 1014.09,568.55 1014.43,566.84 1014.77,565.47 1015.12,564.22 1015.46,563.47 1015.81,562.96 1016.15,563.32 1016.49,563.81 1016.85,562.94 1017.20,562.94 1017.53,562.94 1017.88,562.94 1018.22,563.00 1018.57,564.22 1018.91,565.12 1019.26,565.07 1019.60,566.38 1019.94,565.48 1020.28,566.37 1020.62,566.48 1020.96,567.50 1021.30,566.96 1021.65,567.60 1021.99,567.29 1022.35,567.38 1022.70,567.38 1023.05,567.38 1023.40,567.38 1023.74,567.68 1024.09,566.40 1024.43,566.71 1024.78,565.66 1025.12,566.38 1025.46,564.85 1025.81,564.15 1026.15,564.12 1026.49,564.12 1026.85,563.45 1027.19,564.39 1027.54,565.83 1027.90,566.95 1028.25,566.95 1028.59,566.95 1028.94,566.95 1029.28,567.03 1029.62,567.57 1029.97,567.60 1030.31,567.79 1030.65,567.02 1031.00,566.85 1031.34,566.12 1031.68,566.07 1032.02,566.53 1032.37,565.93 1032.71,566.51 1033.04,566.23 1033.41,566.71 1033.76,566.71 1034.10,566.71 1034.44,566.71 1034.78,566.79 1035.12,568.69 1035.47,567.95 1035.81,568.16 1036.15,568.78 1036.49,567.99 1036.83,568.64 1037.18,568.97 1037.53,568.69 1037.87,569.10 1038.21,570.36 1038.56,570.28 1038.93,571.41 1039.27,571.41 1039.62,571.41 1039.97,571.41 1040.32,573.37 1040.66,572.43 1041.01,573.21 1041.35,571.25 1041.70,571.09 1042.04,571.75 1042.38,572.55 1042.72,573.14 1043.07,573.46 1043.42,572.23 1043.76,571.88 1044.10,572.13 1044.46,570.18 1044.80,570.18 1045.15,570.18 1045.49,570.18 1045.84,570.38 1046.18,568.72 1046.52,568.50 1046.86,567.29 1047.21,566.19 1047.55,564.49 1047.89,566.40 1048.23,565.13 1048.58,564.42 1048.93,565.00 1049.27,565.20 1049.61,565.11 1049.97,563.61 1050.32,563.61 1050.67,563.61 1051.01,563.61 1051.36,565.06 1051.70,566.02 1052.05,567.53 1052.38,567.07 1052.73,568.51 1053.08,569.35 1053.42,570.65 1053.76,570.79 1054.10,572.42 1054.45,572.66 1054.79,572.13 1055.13,571.14 1055.50,570.73 1055.85,570.73 1056.20,570.73 1056.54,570.73 1056.89,571.10 1057.23,569.40 1057.57,569.49 1057.92,569.36 1058.25,570.19 1058.60,568.48 1058.94,568.06 1059.29,567.09 1059.63,566.50 1059.97,565.93 1060.33,565.01 1060.67,566.38 1061.03,565.42 1061.37,565.42 1061.71,565.42 1062.05,565.42 1062.39,565.18 1062.74,565.47 1063.08,567.07 1063.42,567.09 1063.76,567.79 1064.11,568.60 1064.45,568.86 1064.80,570.01 1065.14,569.79 1065.49,570.81 1065.83,569.54 1066.17,568.61 1066.54,567.65 1066.89,567.65 1067.23,567.65 1067.56,567.65 1067.91,569.32 1068.25,568.86 1068.60,569.52 1068.94,569.25 1069.28,568.72 1069.62,567.45 1069.97,567.29 1070.31,567.11 1070.65,567.29 1070.99,567.72 1071.33,567.77 1071.67,569.16 1072.04,569.30 1072.39,569.30 1072.74,569.30 1073.09,569.30 1073.43,568.48 1073.78,567.63 1074.12,567.74 1074.46,567.58 1074.81,568.60 1075.14,568.65 1075.49,569.27 1075.83,568.14 1076.18,566.29 1076.52,565.65 1076.87,566.74 1077.21,567.98 1077.58,569.69 1077.92,569.69 1078.27,569.69 1078.61,569.69 1078.95,569.51 1079.29,568.37 1079.64,567.52 1079.99,567.66 1080.32,567.21 1080.67,569.08 1081.02,569.67 1081.36,569.39 1081.70,569.18 1082.04,567.48 1082.39,567.52 1082.73,569.54 1083.09,571.21 1083.44,571.21 1083.79,571.21 1084.13,571.21 1084.48,569.92 1084.82,571.46 1085.16,570.91 1085.51,569.89 1085.85,570.15 1086.20,570.53 1086.54,571.05 1086.89,571.38 1087.23,570.13 1087.58,570.29 1087.92,571.38 1088.27,571.19 1088.63,571.65 1088.98,571.65 1089.33,571.65 1089.67,571.65 1090.01,572.75 1090.35,573.31 1090.70,571.79 1091.03,571.38 1091.38,570.39 1091.72,571.73 1092.07,570.06 1092.41,568.51 1092.75,567.32 1093.09,567.28 1093.44,566.66 1093.78,566.44 1094.14,567.74 1094.48,567.74 1094.83,567.74 1095.17,567.74 1095.51,568.73 1095.86,570.44 1096.21,568.61 1096.54,568.47 1096.89,569.90 1097.23,570.83 1097.58,570.66 1097.93,571.20 1098.28,570.05 1098.62,568.92 1098.96,568.11 1099.31,566.44 1099.67,567.13 1100.03,567.13 1100.37,567.13 1100.71,567.13 1101.05,568.91 1101.39,567.54 1101.73,566.55 1102.09,566.55 1102.43,566.61 1102.77,566.52 1103.11,566.53 1103.45,566.33 1103.80,567.66 1104.14,568.43 1104.48,567.39 1104.83,567.57 1105.19,568.59 1105.54,568.59 1105.88,568.59 1106.22,568.59 1106.57,568.15 1106.91,566.30 1107.26,566.16 1107.61,566.41 1107.95,566.08 1108.29,566.24 1108.64,564.67 1108.98,564.17 1109.32,564.42 1109.67,564.69 1110.01,564.47 1110.35,564.89 1110.72,565.31 1111.07,565.31 1111.41,565.31 1111.75,565.31 1112.10,564.46 1112.43,565.52 1112.79,565.11 1113.13,566.92 1113.47,568.67 1113.81,568.19 1114.15,566.74 1114.49,565.78 1114.84,565.91 1115.18,565.85 1115.52,567.08 1115.86,567.59 1116.23,566.84 1116.57,566.84 1116.92,566.84 1117.27,566.84 1117.61,566.52 1117.95,565.06 1118.30,565.49 1118.65,565.53 1118.99,566.33 1119.33,566.33 1119.66,567.75 1120.01,568.53 1120.35,568.24 1120.70,567.69 1121.04,567.99 1121.38,567.55 1121.74,567.48 1122.09,567.48 1122.43,567.48 1122.77,567.48 1123.11,569.03 1123.45,570.19 1123.79,571.51 1124.14,570.48 1124.48,568.73 1124.83,568.04 1125.17,568.67 1125.52,568.54 1125.86,568.47 1126.20,568.82 1126.54,568.50 1126.89,566.98 1127.25,565.24 1127.59,565.24 1127.93,565.24 1128.27,565.24 1128.61,566.29 1128.95,566.51 1129.29,566.42 1129.65,567.55 1130.00,566.30 1130.34,567.95 1130.68,569.10 1131.02,568.18 1131.38,569.61 1131.72,571.35 1132.06,569.53 1132.40,569.04 1132.76,570.52 1133.11,570.52 1133.45,570.52 1133.80,570.52 1134.14,570.46 1134.49,570.65 1134.84,569.37 1135.18,568.94 1135.53,568.95 1135.87,567.77 1136.22,566.28 1136.56,567.81 1136.90,569.50 1137.25,567.82 1137.60,567.66 1137.94,567.58 1138.30,568.11 1138.64,568.11 1138.99,568.11 1139.34,568.11 1139.68,568.14 1140.02,567.90 1140.36,569.19 1140.71,570.31 1141.06,570.71 1141.40,571.07 1141.74,572.46 1142.09,572.51 1142.43,574.01 1142.77,575.00 1143.11,575.07 1143.46,576.60 1143.82,575.39 1144.16,575.39 1144.51,575.39 1144.86,575.39 1145.20,574.59 1145.55,573.87 1145.89,573.55 1146.24,573.64 1146.58,572.79 1146.93,570.71 1147.27,570.60 1147.61,569.46 1147.96,567.78 1148.31,568.39 1148.66,568.11 1149.00,567.22 1149.36,565.49 1149.71,565.49 1150.05,565.49 1150.40,565.49 1150.75,564.36 1151.09,563.91 1151.43,564.92 1151.77,563.74 1152.12,564.46 1152.46,565.69 1152.80,566.25 1153.15,566.94 1153.50,567.56 1153.84,569.50 1154.18,570.11 1154.52,570.51 1154.88,571.32 1155.22,571.32 1155.57,571.32 1155.92,571.32 1156.26,572.77 1156.60,573.82 1156.94,574.14 1157.28,573.56 1157.63,573.08 1157.97,573.65 1158.31,571.93 1158.65,571.40 1158.99,572.15 1159.34,572.42 1159.68,571.20 1160.02,569.75 1160.39,569.20 1160.74,569.20 1161.08,569.20 1161.42,569.20 1161.77,568.50 1162.11,568.69 1162.45,567.36 1162.80,568.50 1163.14,568.32 1163.48,567.10 1163.83,567.10 1164.17,566.67 1164.51,568.01 1164.86,568.38 1165.20,569.33 1165.55,569.60 1165.91,571.02 1166.27,571.02 1166.61,571.02 1166.97,571.02 1167.31,570.09 1167.65,571.18 1167.99,571.23 1168.33,569.39 1168.68,570.96 1169.02,569.03 1169.37,568.89 1169.71,569.12 1170.05,568.59 1170.40,567.17 1170.74,567.15 1171.09,566.63 1171.45,566.52 1171.79,566.52 1172.13,566.52 1172.48,566.52 1172.83,566.64 1173.18,565.66 1173.52,566.31 1173.86,566.69 1174.20,566.17 1174.55,566.52 1174.89,566.81 1175.24,567.77 1175.59,567.45 1175.92,568.93 1176.26,568.72 1176.61,568.22 1176.98,568.90 1177.32,568.90 1177.66,568.90 1177.99,568.90 1178.33,568.50 1178.69,568.37 1179.03,569.60 1179.37,571.03 1179.71,569.93 1180.06,569.61 1180.40,569.31 1180.75,570.46 1181.09,572.14 1181.42,571.09 1181.78,570.14 1182.12,569.84 1182.48,569.56 1182.82,569.56 1183.16,569.56 1183.51,569.56 1183.85,569.58 1184.19,569.47 1184.54,570.95 1184.88,571.48 1185.22,570.31 1185.56,569.85 1185.91,570.84 1186.25,572.23 1186.59,573.32 1186.94,572.34 1187.28,571.66 1187.62,573.25 1187.98,572.97 1188.33,572.97 1188.67,572.97 1189.01,572.97 1189.36,572.95 1189.70,573.71 1190.04,573.03 1190.40,571.82 1190.73,571.10 1191.07,569.45 1191.41,570.72 1191.76,571.32 1192.10,571.26 1192.44,571.69 1192.79,570.27 1193.14,571.08 1193.50,571.09 1193.85,571.09 1194.19,571.09 1194.53,571.09 1194.87,571.33 1195.22,572.20 1195.56,572.28 1195.90,571.32 1196.25,570.56 1196.59,570.77 1196.93,570.37 1197.28,571.31 1197.63,570.37 1197.96,570.61 1198.31,572.34 1198.66,570.81 1199.02,570.57 1199.36,570.57 1199.71,570.57 1200.06,570.57 1200.40,571.13 1200.74,570.27 1201.09,570.41 1201.43,569.25 1201.77,569.59 1202.11,570.67 1202.45,569.88 1202.80,569.77 1203.14,571.28 1203.48,571.21 1203.83,570.83 1204.18,571.01 1204.54,569.13 1204.89,569.13 1205.24,569.13 1205.58,569.13 1205.92,569.05 1206.26,567.45 1206.60,567.81 1206.95,569.41 1207.29,568.18 1207.64,568.28 1207.98,569.31 1208.32,568.59 1208.67,568.64 1209.01,569.01 1209.36,569.19 1209.70,570.99 1210.06,570.16 1210.40,570.16 1210.74,570.16 1211.09,570.16 1211.44,570.06 1211.78,571.07 1212.12,569.83 1212.47,569.21 1212.82,570.41 1213.16,571.77 1213.51,571.49 1213.85,571.50 1214.19,571.52 1214.54,572.13 1214.89,570.78 1215.23,570.23 1215.59,571.56 1215.94,571.56 1216.28,571.56 1216.62,571.56 1216.97,573.00 1217.31,571.77 1217.66,571.10 1218.00,571.59 1218.34,572.27 1218.69,570.69 1219.03,569.14 1219.37,570.17 1219.71,570.96 1220.06,570.85 1220.40,570.79 1220.75,572.32 1221.11,573.23 1221.46,573.23 1221.79,573.23 1222.14,573.23 1222.49,574.64 1222.83,575.60 1223.17,576.29 1223.51,578.05 1223.85,577.67 1224.20,577.77 1224.55,576.45 1224.89,574.92 1225.23,573.47 1225.57,572.88 1225.91,571.91 1226.26,570.36 1226.62,571.17 1226.97,571.17 1227.30,571.17 1227.65,571.17 1228.00,569.15 1228.34,569.88 1228.69,568.28 1229.03,568.74 1229.37,569.52 1229.71,571.00 1230.05,571.20 1230.39,570.65 1230.73,572.17 1231.08,571.57 1231.42,572.54 1231.76,571.29 1232.12,572.12 1232.47,572.12 1232.81,572.12 1233.15,572.12 1233.50,573.01 1233.84,572.91 1234.18,571.65 1234.53,571.71 1234.87,572.93 1235.22,571.97 1235.56,570.88 1235.91,571.72 1236.26,572.79 1236.61,571.87 1236.95,570.30 1237.29,571.44 1237.65,570.93 1238.00,570.93 1238.34,570.93 1238.68,570.93 1239.03,570.73 1239.38,570.78 1239.73,570.13 1240.08,571.30 1240.42,569.57 1240.77,568.29 1241.11,569.86 1241.45,571.45 1241.80,570.40 1242.14,572.23 1242.48,572.05 1242.82,571.56 1243.18,573.19 1243.53,573.19 1243.87,573.19 1244.21,573.19 1244.55,573.30 1244.89,573.65 1245.23,574.96 1245.58,573.23 1245.92,572.39 1246.26,571.96 1246.61,571.60 1246.96,570.79 1247.30,571.40 1247.64,569.69 1247.98,570.24 1248.32,570.75 1248.68,569.46 1249.03,569.46 1249.38,569.46 1249.74,569.46 1250.08,570.86 1250.42,571.11 1250.77,571.32 1251.11,571.67 1251.46,573.19 1251.80,573.21 1252.14,574.96 1252.48,573.21 1252.83,573.89 1253.18,575.40 1253.52,575.50 1253.86,576.17 1254.23,575.76 1254.57,575.76 1254.93,575.76 1255.27,575.76 1255.61,573.92 1255.96,573.96 1256.30,571.96 1256.65,570.02 1257.00,571.60 1257.34,571.18 1257.69,570.17 1258.03,570.26 1258.37,570.06 1258.72,571.50 1259.07,573.19 1259.41,571.87 1259.77,573.89 1260.12,573.89 1260.46,573.89 1260.80,573.89 1261.15,574.47 1261.49,572.97 1261.83,572.86 1262.18,573.58 1262.53,573.77 1262.87,572.57 1263.22,571.93 1263.56,571.64 1263.90,571.26 1264.25,570.25 1264.59,571.61 1264.92,573.26 1265.29,572.77 1265.63,572.77 1265.98,572.77 1266.33,572.77 1266.67,572.17 1267.01,571.70 1267.35,572.64 1267.69,571.70 1268.04,570.32 1268.38,572.04 1268.72,572.26 1269.07,571.68 1269.42,571.61 1269.75,571.27 1270.10,571.85 1270.44,570.96 1270.81,570.45 1271.16,570.45 1271.51,570.45 1271.85,570.45 1272.19,572.13 1272.54,572.09 1272.88,571.67 1273.22,571.79 1273.57,570.80 1273.91,570.90 1274.26,571.08 1274.60,570.61 1274.94,571.57 1275.29,570.87 1275.63,569.90 1275.97,571.28 1276.34,571.57 1276.68,571.57 1277.03,571.57 1277.37,571.57 1277.71,571.56 1278.05,571.49 1278.40,571.52 1278.74,573.11 1279.09,573.09 1279.44,571.79 1279.78,573.39 1280.12,573.11 1280.46,573.06 1280.80,573.19 1281.15,573.98 1281.48,575.15 1281.85,573.42 1282.19,573.42 1282.53,573.42 1282.88,573.42 1283.22,572.14 1283.56,572.64 1283.91,572.87 1284.26,572.93 1284.61,574.26 1284.95,573.21 1285.29,572.97 1285.63,570.94 1285.98,569.84 1286.33,571.61 1286.68,572.80 1287.02,572.12 1287.38,572.81 1287.73,572.81 1288.07,572.81 1288.41,572.81 1288.76,571.33 1289.10,570.18 1289.44,571.63 1289.78,571.16 1290.11,571.84 1290.46,571.56 1290.81,571.51 1291.15,571.49 1291.50,572.00 1291.84,572.53 1292.18,573.43 1292.53,574.53 1292.89,573.94 1293.23,573.94 1293.58,573.94 1293.93,573.94 1294.27,574.04 1294.61,575.40 1294.96,576.96 1295.29,576.67 1295.64,575.94 1295.98,576.47 1296.32,575.63 1296.67,574.99 1297.01,574.09 1297.36,573.62 1297.70,572.87 1298.04,572.86 1298.41,572.61 1298.75,572.61 1299.09,572.61 1299.45,572.61 1299.78,572.92 1300.13,572.64 1300.46,571.75 1300.81,572.53 1301.15,573.15 1301.50,572.47 1301.84,572.65 1302.19,572.90 1302.53,572.92 1302.88,571.93 1303.22,570.38 1303.56,569.84 1303.92,569.10 1304.27,569.10 1304.60,569.10 1304.95,569.10 1305.29,568.22 1305.64,568.76 1305.98,570.37 1306.32,569.91 1306.66,569.41 1307.01,568.96 1307.35,568.87 1307.70,568.97 1308.04,570.56 1308.38,572.23 1308.73,572.89 1309.07,571.20 1309.43,571.01 1309.78,571.01 1310.13,571.01 1310.47,571.01 1310.81,571.38 1311.16,571.38 1311.50,570.79 1311.84,571.89 1312.18,573.39 1312.53,572.78 1312.87,571.56 1313.21,571.08 1313.55,572.56 1313.90,572.76 1314.24,572.91 1314.58,573.37 1314.95,574.38 1315.30,574.38 1315.65,574.38 1316.00,574.38 1316.34,574.77 1316.68,573.95 1317.03,572.92 1317.37,574.20 1317.71,574.48 1318.05,574.78 1318.40,572.98 1318.74,572.78 1319.09,572.30 1319.43,572.16 1319.77,572.39 1320.12,573.14 1320.48,573.50 1320.83,573.50 1321.17,573.50 1321.52,573.50 1321.87,572.32 1322.21,572.84 1322.55,572.76 1322.90,574.28 1323.25,574.69 1323.59,575.02 1323.93,574.88 1324.28,574.85 1324.62,573.25 1324.96,574.33 1325.31,575.49 1325.66,574.88 1326.02,573.53 1326.36,573.53 1326.71,573.53 1327.06,573.53 1327.40,572.08 1327.74,571.69 1328.08,573.09 1328.42,572.39 1328.76,572.33 1329.10,572.17 1329.45,572.42 1329.79,572.39 1330.13,572.83 1330.47,572.70 1330.81,572.93 1331.16,573.21 1331.52,571.41 1331.87,571.41 1332.22,571.41 1332.56,571.41 1332.91,571.21 1333.25,569.44 1333.60,571.22 1333.95,571.24 1334.29,569.46 1334.64,568.56 1334.98,568.50 1335.32,569.51 1335.66,570.34 1336.01,570.43 1336.36,571.62 1336.70,572.60 1337.06,572.01 1337.40,572.01 1337.74,572.01 1338.09,572.01 1338.43,570.82 1338.77,572.47 1339.10,573.90 1339.46,574.07 1339.80,574.40 1340.14,574.34 1340.49,575.83 1340.84,574.66 1341.17,574.54 1341.52,575.16 1341.87,574.75 1342.21,573.30 1342.57,573.18 1342.92,573.18 1343.26,573.18 1343.60,573.18 1343.94,572.85 1344.29,571.53 1344.64,571.56 1344.99,571.30 1345.33,571.67 1345.67,571.33 1346.01,569.81 1346.36,571.40 1346.71,571.58 1347.05,570.86 1347.39,572.58 1347.73,574.14 1348.10,574.08 1348.44,574.08 1348.78,574.08 1349.14,574.08 1349.49,573.01 1349.82,572.40 1350.17,573.22 1350.52,574.31 1350.87,572.80 1351.21,574.13 1351.55,574.77 1351.90,573.30 1352.24,573.17 1352.58,573.05 1352.93,573.02 1353.27,572.83 1353.63,572.67 1353.98,572.67 1354.32,572.67 1354.67,572.67 1355.01,571.36 1355.36,572.54 1355.70,572.56 1356.04,572.74 1356.38,573.76 1356.73,573.56 1357.08,573.79 1357.42,573.74 1357.76,575.09 1358.11,574.39 1358.46,575.77 1358.80,574.44 1359.16,573.31 1359.50,573.31 1359.84,573.31 1360.18,573.31 1360.53,573.21 1360.87,572.12 1361.22,572.44 1361.56,572.29 1361.91,572.39 1362.25,571.38 1362.59,572.73 1362.93,572.72 1363.27,574.40 1363.62,575.56 1363.97,574.73 1364.31,575.84 1364.67,574.61 1365.02,574.61 1365.36,574.61 1365.71,574.61 1366.05,574.78 1366.39,574.83 1366.73,575.91 1367.08,575.87 1367.42,576.26 1367.76,574.71 1368.10,574.60 1368.45,573.98 1368.80,572.87 1369.14,572.97 1369.49,572.95 1369.83,574.26 1370.19,574.45 1370.54,574.45 1370.89,574.45 1371.23,574.45 1371.57,573.08 1371.92,571.66 1372.26,572.37 1372.60,570.62 1372.94,570.46 1373.28,572.12 1373.63,571.64 1373.97,571.64 1374.31,571.12 1374.65,569.97 1375.00,571.09 1375.34,571.46 1375.70,572.34 1376.05,572.34 1376.39,572.34 1376.74,572.34 1377.08,573.15 1377.43,574.53 1377.77,574.50 1378.12,575.10 1378.46,574.48 1378.81,574.05 1379.15,573.92 1379.49,574.16 1379.83,574.98 1380.18,573.56 1380.52,574.59 1380.86,574.93 1381.22,574.63 1381.57,574.63 1381.91,574.63 1382.26,574.63 1382.60,575.48 1382.94,574.41 1383.29,575.52 1383.63,575.66 1383.97,575.32 1384.31,575.40 1384.65,576.74 1385.00,576.53 1385.33,576.05 1385.68,576.33 1386.02,576.13 1386.36,576.26 1386.73,575.72 1387.07,575.72 1387.42,575.72 1387.76,575.72 1388.10,575.27 1388.44,575.33 1388.80,574.73 1389.14,574.40 1389.48,574.37 1389.83,573.32 1390.17,573.40 1390.51,573.73 1390.85,575.24 1391.19,575.43 1391.54,577.00 1391.89,577.19 1392.25,577.27 1392.60,577.27 1392.94,577.27 1393.28,577.27 1393.62,577.03 1393.96,577.32 1394.31,578.59 1394.66,577.68 1395.00,576.12" class="raw"/><polyline points="113.06,329.55 129.19,111.02 145.32,186.10 161.44,263.77 177.57,321.89 193.70,364.11 209.82,396.21 225.95,420.77 242.08,439.36 258.20,455.29 274.33,469.10 290.46,479.12 306.58,488.40 322.71,495.21 338.84,497.03 354.96,500.63 371.09,505.49 387.22,511.66 403.34,518.21 419.47,523.22 435.60,527.64 451.72,528.65 467.85,533.44 483.98,537.03 500.10,540.09 516.23,541.56 532.36,544.08 548.48,546.75 564.61,549.37 580.74,550.68 596.86,551.11 612.99,550.96 629.12,550.67 645.24,551.55 661.37,554.12 677.50,553.76 693.62,554.88 709.75,556.91 725.88,556.28 742.00,557.20 758.13,557.57 774.26,558.90 790.38,559.37 806.51,561.00 822.64,559.08 838.76,561.00 854.89,562.02 871.02,563.43 887.14,563.53 903.27,564.90 919.40,564.42 935.52,566.21 951.65,567.01 967.78,565.14 983.90,566.79 1000.03,566.98 1016.16,567.21 1032.28,567.42 1048.41,568.97 1064.54,568.02 1080.66,569.30 1096.79,568.74 1112.92,566.41 1129.04,568.38 1145.17,569.64 1161.30,570.29 1177.42,568.62 1193.55,571.40 1209.68,570.20 1225.80,572.27 1241.93,571.39 1258.06,572.92 1274.18,571.85 1290.31,573.15 1306.44,571.27 1322.56,573.48 1338.69,572.08 1354.82,573.22 1370.94,573.53 1387.07,575.59" class="bin"/>
<text x="93" y="615.00" text-anchor="end" class="tick">-27.05</text><text x="105.00" y="638" text-anchor="middle" class="tick">0.0</text><text x="93" y="507.00" text-anchor="end" class="tick">70.19</text><text x="363.00" y="638" text-anchor="middle" class="tick">8.0</text><text x="93" y="399.00" text-anchor="end" class="tick">167.42</text><text x="621.00" y="638" text-anchor="middle" class="tick">16.0</text><text x="93" y="291.00" text-anchor="end" class="tick">264.66</text><text x="879.00" y="638" text-anchor="middle" class="tick">24.0</text><text x="93" y="183.00" text-anchor="end" class="tick">361.89</text><text x="1137.00" y="638" text-anchor="middle" class="tick">32.0</text><text x="93" y="75.00" text-anchor="end" class="tick">459.12</text><text x="1395.00" y="638" text-anchor="middle" class="tick">40.0</text>
<text x="720.00" y="675" text-anchor="middle" class="legend">Elapsed time (minutes)</text><text transform="translate(27 350.00) rotate(-90)" text-anchor="middle" class="legend">MQ8 voltage (mV)</text>
<line x1="1110" y1="35" x2="1155" y2="35" class="raw"/><text x="1165" y="41" class="legend">MQ8 raw</text><line x1="1270" y1="35" x2="1315" y2="35" class="bin"/><text x="1325" y="41" class="legend">Mean 30 s</text>
</svg>