<svg xmlns="http://www.w3.org/2000/svg" viewBox="0 0 1200 800" width="1200" height="800"><rect x="0" y="0" width="1200" height="800" rx="0" fill="#F4F7F9" stroke="#F4F7F9"/><text x="38" y="33.019999999999996" font-family="Arial,sans-serif" font-size="11" font-weight="700" fill="#147B75">PERTAMINA GLD   /   SCHEMATIC BLOCK DIAGRAM</text><text x="38" y="73.96" font-family="Arial,sans-serif" font-size="28" font-weight="700" fill="#183044">06  Eight sensor modules: load split</text><text x="38" y="101.66" font-family="Arial,sans-serif" font-size="13" font-weight="400" fill="#183044">Current at each module header includes its heater, analog electronics and switch bias.</text><rect x="430" y="135" width="340" height="85" rx="8" fill="white" stroke="#CCD7DE"/><rect x="430" y="135" width="5" height="85" rx="2" fill="#B86518" stroke="#B86518"/><text x="446" y="161.3" font-family="Arial,sans-serif" font-size="15" font-weight="700" fill="#183044">Sensor power branch</text><text x="446" y="187.3" font-family="Arial,sans-serif" font-size="15" font-weight="400" fill="#183044">4,93 V 1,2976 A</text><polyline points="600,220 600,257 70,257 70,610" fill="none" stroke="#B86518" stroke-width="1.8"/><rect x="77" y="224" width="84.89599609375" height="15" rx="2" fill="#F4F7F9" stroke="#F4F7F9"/><text x="80" y="235.02" font-family="Arial,sans-serif" font-size="11" font-weight="400" fill="#183044">4,93 V 1,2976 A</text><polyline points="600,257 665,257 665,610" fill="none" stroke="#B86518" stroke-width="1.8"/><rect x="245" y="290" width="320" height="77" rx="8" fill="white" stroke="#CCD7DE"/><rect x="245" y="290" width="5" height="77" rx="2" fill="#147B75" stroke="#147B75"/><text x="261" y="316.3" font-family="Arial,sans-serif" font-size="15" font-weight="700" fill="#183044">Slot 1 - MQ8</text><text x="261" y="339.43" font-family="Arial,sans-serif" font-size="11.5" font-weight="400" fill="#183044">Heater: 0,1638 A | circuits: 0,618 mA</text><polyline points="70,328 245,328" fill="none" stroke="#B86518" stroke-width="1.8"/><polygon points="245,328 237.7964231811786,331.4797242728898 237.7964231811786,324.5202757271102" fill="#B86518"/><rect x="81" y="300" width="84.89599609375" height="15" rx="2" fill="#F4F7F9" stroke="#F4F7F9"/><text x="84" y="311.02" font-family="Arial,sans-serif" font-size="11" font-weight="400" fill="#183044">4,93 V 0,1645 A</text><rect x="245" y="384" width="320" height="77" rx="8" fill="white" stroke="#CCD7DE"/><rect x="245" y="384" width="5" height="77" rx="2" fill="#147B75" stroke="#147B75"/><text x="261" y="410.3" font-family="Arial,sans-serif" font-size="15" font-weight="700" fill="#183044">Slot 2 - MQ135</text><text x="261" y="433.43" font-family="Arial,sans-serif" font-size="11.5" font-weight="400" fill="#183044">Heater: 0,1638 A | circuits: 0,618 mA</text><polyline points="70,422 245,422" fill="none" stroke="#B86518" stroke-width="1.8"/><polygon points="245,422 237.7964231811786,425.4797242728898 237.7964231811786,418.5202757271102" fill="#B86518"/><rect x="81" y="394" width="84.89599609375" height="15" rx="2" fill="#F4F7F9" stroke="#F4F7F9"/><text x="84" y="405.02" font-family="Arial,sans-serif" font-size="11" font-weight="400" fill="#183044">4,93 V 0,1645 A</text><rect x="245" y="478" width="320" height="77" rx="8" fill="white" stroke="#CCD7DE"/><rect x="245" y="478" width="5" height="77" rx="2" fill="#147B75" stroke="#147B75"/><text x="261" y="504.3" font-family="Arial,sans-serif" font-size="15" font-weight="700" fill="#183044">Slot 3 - MQ3</text><text x="261" y="527.43" font-family="Arial,sans-serif" font-size="11.5" font-weight="400" fill="#183044">Heater: 0,1490 A | circuits: 0,618 mA</text><polyline points="70,516 245,516" fill="none" stroke="#B86518" stroke-width="1.8"/><polygon points="245,516 237.7964231811786,519.4797242728898 237.7964231811786,512.5202757271102" fill="#B86518"/><rect x="81" y="488" width="84.89599609375" height="15" rx="2" fill="#F4F7F9" stroke="#F4F7F9"/><text x="84" y="499.02" font-family="Arial,sans-serif" font-size="11" font-weight="400" fill="#183044">4,93 V 0,1496 A</text><rect x="245" y="572" width="320" height="77" rx="8" fill="white" stroke="#CCD7DE"/><rect x="245" y="572" width="5" height="77" rx="2" fill="#147B75" stroke="#147B75"/><text x="261" y="598.3" font-family="Arial,sans-serif" font-size="15" font-weight="700" fill="#183044">Slot 4 - MQ5</text><text x="261" y="621.43" font-family="Arial,sans-serif" font-size="11.5" font-weight="400" fill="#183044">Heater: 0,1638 A | circuits: 0,618 mA</text><polyline points="70,610 245,610" fill="none" stroke="#B86518" stroke-width="1.8"/><polygon points="245,610 237.7964231811786,613.4797242728898 237.7964231811786,606.5202757271102" fill="#B86518"/><rect x="81" y="582" width="84.89599609375" height="15" rx="2" fill="#F4F7F9" stroke="#F4F7F9"/><text x="84" y="593.02" font-family="Arial,sans-serif" font-size="11" font-weight="400" fill="#183044">4,93 V 0,1645 A</text><rect x="840" y="290" width="320" height="77" rx="8" fill="white" stroke="#CCD7DE"/><rect x="840" y="290" width="5" height="77" rx="2" fill="#147B75" stroke="#147B75"/><text x="856" y="316.3" font-family="Arial,sans-serif" font-size="15" font-weight="700" fill="#183044">Slot 5 - MQ4</text><text x="856" y="339.43" font-family="Arial,sans-serif" font-size="11.5" font-weight="400" fill="#183044">Heater: 0,1755 A | circuits: 0,618 mA</text><polyline points="665,328 840,328" fill="none" stroke="#B86518" stroke-width="1.8"/><polygon points="840,328 832.7964231811786,331.4797242728898 832.7964231811786,324.5202757271102" fill="#B86518"/><rect x="676" y="300" width="84.89599609375" height="15" rx="2" fill="#F4F7F9" stroke="#F4F7F9"/><text x="679" y="311.02" font-family="Arial,sans-serif" font-size="11" font-weight="400" fill="#183044">4,93 V 0,1761 A</text><rect x="840" y="384" width="320" height="77" rx="8" fill="white" stroke="#CCD7DE"/><rect x="840" y="384" width="5" height="77" rx="2" fill="#147B75" stroke="#147B75"/><text x="856" y="410.3" font-family="Arial,sans-serif" font-size="15" font-weight="700" fill="#183044">Slot 6 - MQ7</text><text x="856" y="433.43" font-family="Arial,sans-serif" font-size="11.5" font-weight="400" fill="#183044">Heater: 0,1490 A | circuits: 0,618 mA</text><polyline points="665,422 840,422" fill="none" stroke="#B86518" stroke-width="1.8"/><polygon points="840,422 832.7964231811786,425.4797242728898 832.7964231811786,418.5202757271102" fill="#B86518"/><rect x="676" y="394" width="84.89599609375" height="15" rx="2" fill="#F4F7F9" stroke="#F4F7F9"/><text x="679" y="405.02" font-family="Arial,sans-serif" font-size="11" font-weight="400" fill="#183044">4,93 V 0,1496 A</text><rect x="840" y="478" width="320" height="77" rx="8" fill="white" stroke="#CCD7DE"/><rect x="840" y="478" width="5" height="77" rx="2" fill="#147B75" stroke="#147B75"/><text x="856" y="504.3" font-family="Arial,sans-serif" font-size="15" font-weight="700" fill="#183044">Slot 7 - MQ6</text><text x="856" y="527.43" font-family="Arial,sans-serif" font-size="11.5" font-weight="400" fill="#183044">Heater: 0,1638 A | circuits: 0,618 mA</text><polyline points="665,516 840,516" fill="none" stroke="#B86518" stroke-width="1.8"/><polygon points="840,516 832.7964231811786,519.4797242728898 832.7964231811786,512.5202757271102" fill="#B86518"/><rect x="676" y="488" width="84.89599609375" height="15" rx="2" fill="#F4F7F9" stroke="#F4F7F9"/><text x="679" y="499.02" font-family="Arial,sans-serif" font-size="11" font-weight="400" fill="#183044">4,93 V 0,1645 A</text><rect x="840" y="572" width="320" height="77" rx="8" fill="white" stroke="#CCD7DE"/><rect x="840" y="572" width="5" height="77" rx="2" fill="#147B75" stroke="#147B75"/><text x="856" y="598.3" font-family="Arial,sans-serif" font-size="15" font-weight="700" fill="#183044">Slot 8 - MQ2</text><text x="856" y="621.43" font-family="Arial,sans-serif" font-size="11.5" font-weight="400" fill="#183044">Heater: 0,1638 A | circuits: 0,618 mA</text><polyline points="665,610 840,610" fill="none" stroke="#B86518" stroke-width="1.8"/><polygon points="840,610 832.7964231811786,613.4797242728898 832.7964231811786,606.5202757271102" fill="#B86518"/><rect x="676" y="582" width="84.89599609375" height="15" rx="2" fill="#F4F7F9" stroke="#F4F7F9"/><text x="679" y="593.02" font-family="Arial,sans-serif" font-size="11" font-weight="400" fill="#183044">4,93 V 0,1645 A</text><rect x="40" y="678" width="1120" height="76" rx="8" fill="white" stroke="#CCD7DE"/><rect x="40" y="678" width="5" height="76" rx="2" fill="#AD4D35" stroke="#AD4D35"/><text x="56" y="704.3" font-family="Arial,sans-serif" font-size="15" font-weight="700" fill="#183044">Heater model and module control</text><text x="56" y="727.84" font-family="Arial,sans-serif" font-size="12" font-weight="400" fill="#183044">Heaters use datasheet room-temperature resistance; calculated local voltage is about 4,92 V after switches.</text><text x="56" y="744.64" font-family="Arial,sans-serif" font-size="12" font-weight="400" fill="#183044">I2C selects each module DAC; PCF8574 enables module power. MQ7 here uses the supplied fixed-supply circuit, not a low/high cycle.</text><text x="1035" y="773.2" font-family="Arial,sans-serif" font-size="10" font-weight="400" fill="#183044">06 / 09</text></svg>