<svg xmlns="http://www.w3.org/2000/svg" viewBox="0 0 1200 800" width="1200" height="800"><rect x="0" y="0" width="1200" height="800" rx="0" fill="#F4F7F9" stroke="#F4F7F9"/><text x="38" y="33.019999999999996" font-family="Arial,sans-serif" font-size="11" font-weight="700" fill="#147B75">PERTAMINA GLD   /   SCHEMATIC BLOCK DIAGRAM</text><text x="38" y="73.96" font-family="Arial,sans-serif" font-size="28" font-weight="700" fill="#183044">07  ESP32 communications and connections</text><text x="38" y="101.66" font-family="Arial,sans-serif" font-size="13" font-weight="400" fill="#183044">IC current references are shown inside blocks; SPI, I2C and UART lines carry data, not supply current.</text><rect x="40" y="130" width="700" height="180" rx="12" fill="#EAF0F8" stroke="#316FC0"/><text x="62" y="158.12" font-family="Arial,sans-serif" font-size="16" font-weight="700" fill="#316FC0">SPI</text><rect x="75" y="177" width="220" height="85" rx="8" fill="white" stroke="#CCD7DE"/><rect x="75" y="177" width="5" height="85" rx="2" fill="#147B75" stroke="#147B75"/><text x="91" y="204.12" font-family="Arial,sans-serif" font-size="16" font-weight="700" fill="#183044">ADS 8 Channel</text><text x="91" y="226.84" font-family="Arial,sans-serif" font-size="12" font-weight="400" fill="#183044">ADS1256</text><text x="91" y="243.64000000000001" font-family="Arial,sans-serif" font-size="12" font-weight="400" fill="#183044">3.3 V 0.0009 A + analog</text><rect x="435" y="177" width="220" height="85" rx="8" fill="white" stroke="#CCD7DE"/><rect x="435" y="177" width="5" height="85" rx="2" fill="#316FC0" stroke="#316FC0"/><text x="451" y="204.12" font-family="Arial,sans-serif" font-size="16" font-weight="700" fill="#183044">LoRa radio</text><text x="451" y="226.84" font-family="Arial,sans-serif" font-size="12" font-weight="400" fill="#183044">E22-900MM22S</text><text x="451" y="243.64000000000001" font-family="Arial,sans-serif" font-size="12" font-weight="400" fill="#183044">3.3 V 0.119 A (TX)</text><rect x="870" y="180" width="270" height="75" rx="8" fill="white" stroke="#CCD7DE"/><rect x="870" y="180" width="5" height="75" rx="2" fill="#147B75" stroke="#147B75"/><text x="886" y="207.12" font-family="Arial,sans-serif" font-size="16" font-weight="700" fill="#183044">LoRa antenna</text><text x="886" y="230.66" font-family="Arial,sans-serif" font-size="13" font-weight="400" fill="#183044">External antenna</text><polyline points="655,218 870,218" fill="none" stroke="#147B75" stroke-width="1.8"/><polygon points="870,218 862.7964231811786,221.47972427288985 862.7964231811786,214.52027572711015" fill="#147B75"/><rect x="749" y="191" width="21.99609375" height="17" rx="2" fill="#F4F7F9" stroke="#F4F7F9"/><text x="752" y="202.84" font-family="Arial,sans-serif" font-size="12" font-weight="400" fill="#147B75">RF</text><polyline points="185,262 185,280 545,280 545,262" fill="none" stroke="#316FC0" stroke-width="1.8"/><rect x="315" y="284" width="48.0234375" height="16" rx="2" fill="#F4F7F9" stroke="#F4F7F9"/><text x="318" y="295.84" font-family="Arial,sans-serif" font-size="12" font-weight="400" fill="#183044">SPI bus</text><rect x="450" y="350" width="300" height="130" rx="8" fill="white" stroke="#CCD7DE"/><rect x="450" y="350" width="5" height="130" rx="2" fill="#8060AC" stroke="#8060AC"/><text x="466" y="377.94" font-family="Arial,sans-serif" font-size="17" font-weight="700" fill="#183044">ESP32</text><text x="466" y="401.48" font-family="Arial,sans-serif" font-size="14" font-weight="400" fill="#183044">ESP32-S3-WROOM</text><text x="466" y="421.08000000000004" font-family="Arial,sans-serif" font-size="14" font-weight="400" fill="#183044">3.3 V 0.0917 A reference</text><text x="466" y="440.68000000000006" font-family="Arial,sans-serif" font-size="14" font-weight="400" fill="#183044">All VCC loads: 0,2191 A</text><polyline points="600,350 600,310" fill="none" stroke="#316FC0" stroke-width="1.8"/><polygon points="600,310 603.4797242728898,317.20357681882143 596.5202757271102,317.20357681882143" fill="#316FC0"/><rect x="616" y="321" width="26.953613281250004" height="18" rx="2" fill="#F4F7F9" stroke="#F4F7F9"/><text x="619" y="333.66" font-family="Arial,sans-serif" font-size="13" font-weight="400" fill="#316FC0">SPI</text><rect x="40" y="540" width="520" height="185" rx="12" fill="#EAF0F8" stroke="#316FC0"/><text x="62" y="567.12" font-family="Arial,sans-serif" font-size="16" font-weight="700" fill="#316FC0">I2C</text><rect x="65" y="588" width="140" height="88" rx="8" fill="white" stroke="#CCD7DE"/><rect x="65" y="588" width="5" height="88" rx="2" fill="#316FC0" stroke="#316FC0"/><text x="81" y="615.12" font-family="Arial,sans-serif" font-size="16" font-weight="700" fill="#183044">I2C mux</text><text x="81" y="637.43" font-family="Arial,sans-serif" font-size="11.5" font-weight="400" fill="#183044">TCA9548A</text><text x="81" y="653.53" font-family="Arial,sans-serif" font-size="11.5" font-weight="400" fill="#183044">4.93 V 30 µA</text><rect x="220" y="588" width="140" height="88" rx="8" fill="white" stroke="#CCD7DE"/><rect x="220" y="588" width="5" height="88" rx="2" fill="#8060AC" stroke="#8060AC"/><text x="236" y="615.12" font-family="Arial,sans-serif" font-size="16" font-weight="700" fill="#183044">GPIO mux</text><text x="236" y="637.43" font-family="Arial,sans-serif" font-size="11.5" font-weight="400" fill="#183044">PCF8574</text><text x="236" y="653.53" font-family="Arial,sans-serif" font-size="11.5" font-weight="400" fill="#183044">3.3 V 100 µA</text><rect x="375" y="588" width="155" height="88" rx="8" fill="white" stroke="#CCD7DE"/><rect x="375" y="588" width="5" height="88" rx="2" fill="#147B75" stroke="#147B75"/><text x="391" y="614.3" font-family="Arial,sans-serif" font-size="15" font-weight="700" fill="#183044">Temperature</text><text x="391" y="637.43" font-family="Arial,sans-serif" font-size="11.5" font-weight="400" fill="#183044">Humidity | SHT40</text><text x="391" y="653.53" font-family="Arial,sans-serif" font-size="11.5" font-weight="400" fill="#183044">3.3 V 320 µA</text><polyline points="135,676 135,691 451,691 451,676" fill="none" stroke="#316FC0" stroke-width="1.8"/><polyline points="290,676 290,691" fill="none" stroke="#316FC0" stroke-width="1.8"/><rect x="264" y="699" width="47.35546875" height="16" rx="2" fill="#F4F7F9" stroke="#F4F7F9"/><text x="267" y="710.84" font-family="Arial,sans-serif" font-size="12" font-weight="400" fill="#183044">I2C bus</text><rect x="640" y="540" width="520" height="185" rx="12" fill="#EAF0F8" stroke="#316FC0"/><text x="662" y="567.12" font-family="Arial,sans-serif" font-size="16" font-weight="700" fill="#316FC0">UART</text><rect x="670" y="588" width="200" height="88" rx="8" fill="white" stroke="#CCD7DE"/><rect x="670" y="588" width="5" height="88" rx="2" fill="#316FC0" stroke="#316FC0"/><text x="686" y="615.12" font-family="Arial,sans-serif" font-size="16" font-weight="700" fill="#183044">RS485</text><text x="686" y="637.84" font-family="Arial,sans-serif" font-size="12" font-weight="400" fill="#183044">THVD1410 (receive)</text><text x="686" y="654.64" font-family="Arial,sans-serif" font-size="12" font-weight="400" fill="#183044">3.3 V 0.0007 A</text><rect x="915" y="588" width="210" height="88" rx="8" fill="white" stroke="#CCD7DE"/><rect x="915" y="588" width="5" height="88" rx="2" fill="#316FC0" stroke="#316FC0"/><text x="931" y="615.12" font-family="Arial,sans-serif" font-size="16" font-weight="700" fill="#183044">USB programming</text><text x="931" y="637.84" font-family="Arial,sans-serif" font-size="12" font-weight="400" fill="#183044">CH340C (active)</text><text x="931" y="654.64" font-family="Arial,sans-serif" font-size="12" font-weight="400" fill="#183044">3.3 V 0.004 A</text><polyline points="770,710 770,676" fill="none" stroke="#316FC0" stroke-width="1.8"/><polygon points="770,676 773.4797242728898,683.2035768188214 766.5202757271102,683.2035768188214" fill="#316FC0"/><rect x="780" y="691" width="45.33984375" height="17" rx="2" fill="#F4F7F9" stroke="#F4F7F9"/><text x="783" y="702.84" font-family="Arial,sans-serif" font-size="12" font-weight="400" fill="#316FC0">UART2</text><polyline points="1020,710 1020,676" fill="none" stroke="#316FC0" stroke-width="1.8"/><polygon points="1020,676 1023.4797242728898,683.2035768188214 1016.5202757271102,683.2035768188214" fill="#316FC0"/><rect x="1030" y="691" width="45.33984375" height="17" rx="2" fill="#F4F7F9" stroke="#F4F7F9"/><text x="1033" y="702.84" font-family="Arial,sans-serif" font-size="12" font-weight="400" fill="#316FC0">UART0</text><polyline points="520,480 520,540" fill="none" stroke="#316FC0" stroke-width="1.8"/><polygon points="520,540 516.5202757271102,532.7964231811786 523.4797242728898,532.7964231811786" fill="#316FC0"/><rect x="532" y="504" width="26.22998046875" height="18" rx="2" fill="#F4F7F9" stroke="#F4F7F9"/><text x="535" y="516.66" font-family="Arial,sans-serif" font-size="13" font-weight="400" fill="#316FC0">I2C</text><polyline points="680,480 680,540" fill="none" stroke="#316FC0" stroke-width="1.8"/><polygon points="680,540 676.5202757271102,532.7964231811786 683.4797242728898,532.7964231811786" fill="#316FC0"/><rect x="693" y="504" width="41.38818359375" height="18" rx="2" fill="#F4F7F9" stroke="#F4F7F9"/><text x="696" y="516.66" font-family="Arial,sans-serif" font-size="13" font-weight="400" fill="#316FC0">UART</text><rect x="930" y="355" width="210" height="100" rx="8" fill="white" stroke="#CCD7DE"/><rect x="930" y="355" width="5" height="100" rx="2" fill="#8060AC" stroke="#8060AC"/><text x="946" y="382.12" font-family="Arial,sans-serif" font-size="16" font-weight="700" fill="#183044">Alarm / power</text><text x="946" y="406.48" font-family="Arial,sans-serif" font-size="14" font-weight="400" fill="#183044">GPIO control</text><text x="946" y="426.08000000000004" font-family="Arial,sans-serif" font-size="14" font-weight="400" fill="#183044">and status</text><polyline points="750,409 930,409" fill="none" stroke="#8060AC" stroke-width="1.8"/><polygon points="930,409 922.7964231811786,412.4797242728898 922.7964231811786,405.5202757271102" fill="#8060AC"/><rect x="811" y="382" width="38.50634765625" height="18" rx="2" fill="#F4F7F9" stroke="#F4F7F9"/><text x="814" y="394.66" font-family="Arial,sans-serif" font-size="13" font-weight="400" fill="#8060AC">GPIO</text><rect x="37" y="742.0" width="597.829833984375" height="14.5" rx="2" fill="#F4F7F9" stroke="#F4F7F9"/><text x="40" y="752.61" font-family="Arial,sans-serif" font-size="10.5" font-weight="400" fill="#183044">VCC includes 2.409 mA pullup allowance. PCF and TCA use cross-voltage datasheet budget references; see calculation notes.</text><text x="1035" y="773.2" font-family="Arial,sans-serif" font-size="10" font-weight="400" fill="#183044">07 / 09</text></svg>